<svg version="1.1" id="Layer_1" xmlns="http://www.w3.org/2000/svg" xmlns:xlink="http://www.w3.org/1999/xlink" x="0px" y="0px"
   viewBox="0 0 512 512" style="enable-background:new 0 0 512 512;" xml:space="preserve">
<path style="fill:#C4DF64;" d="M496.612,443.887c4.998,4.697,7.81,11.059,7.917,17.917c0.107,6.857-2.504,13.305-7.354,18.154
  l-23.418,23.418c-4.753,4.753-11.043,7.357-17.749,7.357c-0.135,0-0.27-0.001-0.405-0.003c-6.857-0.108-13.22-2.918-17.915-7.917
  l-168.54-179.411l48.696-47.447L496.612,443.887z"/>
<path style="fill:#AFCA62;" d="M338.472,295.331c-9.455,13.068-20.474,24.934-32.78,35.318l170.396,170.396l-2.33,2.33
  c-4.753,4.753-11.043,7.357-17.749,7.357c-0.135,0-0.27-0.001-0.405-0.003c-6.857-0.108-13.22-2.918-17.915-7.917l-168.54-179.409
  l48.696-47.447L338.472,295.331z"/>
<path style="fill:#8E959F;" d="M179.04,1.267c98.723,0,179.04,80.318,179.04,179.04s-80.317,179.04-179.04,179.04
  S0,279.028,0,180.306C0,81.583,80.317,1.267,179.04,1.267z"/>
<path style="fill:#68727E;" d="M179.04,26.386c84.872,0,153.921,69.049,153.921,153.921S263.912,334.227,179.04,334.227
  S25.119,265.178,25.119,180.306S94.167,26.386,179.04,26.386z"/>
<path style="fill:#ECEDEF;" d="M179.04,44.022c75.147,0,136.284,61.136,136.284,136.284S254.187,316.59,179.04,316.59
  S42.756,255.453,42.756,180.306S103.892,44.022,179.04,44.022z"/>
<path style="fill:#F6F6F7;" d="M179.04,60.59c66.012,0,119.716,53.704,119.716,119.716S245.051,300.022,179.04,300.022
  S59.324,246.318,59.324,180.306S113.028,60.59,179.04,60.59z"/>
<path style="fill:#FF8C78;" d="M179.04,265.818c-47.227,0-85.511-38.285-85.511-85.511s38.285-85.511,85.511-85.511
  s85.511,38.285,85.511,85.511H179.04V265.818z"/>
<path style="fill:#FFD791;" d="M179.04,265.818v-85.511h85.511C264.551,227.532,226.267,265.818,179.04,265.818z"/>
<g>
  <path style="fill:#8E959F;" d="M42.221,419.204h153.921c4.427,0,8.017-3.588,8.017-8.017v-34.205c0-4.428-3.589-8.017-8.017-8.017
    s-8.017,3.588-8.017,8.017v26.188H42.221c-4.427,0-8.017,3.588-8.017,8.017S37.794,419.204,42.221,419.204z"/>
  <path style="fill:#8E959F;" d="M179.04,453.409h17.102c4.427,0,8.017-3.588,8.017-8.017s-3.589-8.017-8.017-8.017H179.04
    c-4.427,0-8.017,3.588-8.017,8.017S174.612,453.409,179.04,453.409z"/>
  <path style="fill:#8E959F;" d="M42.221,453.409h102.614c4.427,0,8.017-3.588,8.017-8.017s-3.589-8.017-8.017-8.017H42.221
    c-4.427,0-8.017,3.588-8.017,8.017S37.794,453.409,42.221,453.409z"/>
  <path style="fill:#8E959F;" d="M42.221,487.613h102.614c4.427,0,8.017-3.588,8.017-8.017s-3.589-8.017-8.017-8.017H42.221
    c-4.427,0-8.017,3.588-8.017,8.017S37.794,487.613,42.221,487.613z"/>
  <path style="fill:#8E959F;" d="M375.716,154.118c4.427,0,8.017-3.588,8.017-8.017v-26.188h120.251c4.427,0,8.017-3.588,8.017-8.017
    s-3.589-8.017-8.017-8.017H375.716c-4.427,0-8.017,3.588-8.017,8.017v34.205C367.699,150.529,371.289,154.118,375.716,154.118z"/>
  <path style="fill:#8E959F;" d="M375.716,85.709h17.102c4.427,0,8.017-3.588,8.017-8.017c0-4.428-3.589-8.017-8.017-8.017h-17.102
    c-4.427,0-8.017,3.588-8.017,8.017C367.699,82.121,371.289,85.709,375.716,85.709z"/>
  <path style="fill:#8E959F;" d="M427.023,85.709h76.96c4.427,0,8.017-3.588,8.017-8.017c0-4.428-3.589-8.017-8.017-8.017h-76.96
    c-4.427,0-8.017,3.588-8.017,8.017C419.006,82.121,422.596,85.709,427.023,85.709z"/>
  <path style="fill:#8E959F;" d="M427.023,51.505h76.96c4.427,0,8.017-3.588,8.017-8.017s-3.589-8.017-8.017-8.017h-76.96
    c-4.427,0-8.017,3.588-8.017,8.017S422.596,51.505,427.023,51.505z"/>
</g>
<g>
</g>
<g>
</g>
<g>
</g>
<g>
</g>
<g>
</g>
<g>
</g>
<g>
</g>
<g>
</g>
<g>
</g>
<g>
</g>
<g>
</g>
<g>
</g>
<g>
</g>
<g>
</g>
<g>
</g>
</svg>
