<?xml version="1.0" encoding="iso-8859-1"?>
<!-- Generator: Adobe Illustrator 19.0.0, SVG Export Plug-In . SVG Version: 6.00 Build 0)  -->
<svg version="1.1" id="Capa_1" xmlns="http://www.w3.org/2000/svg" xmlns:xlink="http://www.w3.org/1999/xlink" x="0px" y="0px"
   viewBox="0 0 512 512" style="enable-background:new 0 0 512 512;" xml:space="preserve">
<path style="fill:#3FCDE0;" d="M510.324,257.676c0,20.107-2.325,39.674-6.747,58.422c-4.9,20.844-12.363,40.702-22.038,59.221
  c-0.125,0.228-0.249,0.467-0.374,0.695c-7.194,13.661-15.592,26.595-25.069,38.647c-29.647,37.744-69.747,66.892-115.94,83.086
  C313.82,506.976,285.491,512,256,512c-18.332,0-36.207-1.941-53.439-5.626c-40.484-8.657-77.397-26.948-108.207-52.359
  c-26.387-21.737-48.321-48.706-64.204-79.307c-5.678-10.931-10.588-22.329-14.647-34.11c-8.958-25.993-13.827-53.885-13.827-82.92
  c0-51.27,15.166-98.999,41.263-138.933C88.344,49.266,166.81,3.353,256,3.353C396.459,3.353,510.324,117.217,510.324,257.676z"/>
<g>
  <path style="fill:#74D9EF;" d="M184.374,370.451c0,16.619-13.474,30.104-30.104,30.104h-18.685c-8.304,0-15.841,3.374-21.28,8.813
    c-5.45,5.45-8.823,12.976-8.823,21.291c0,9.426-4.339,17.844-11.128,23.356c-26.387-21.737-48.321-48.706-64.204-79.307
    c-5.678-10.931-10.588-22.329-14.647-34.111c1.256-0.166,2.522-0.249,3.82-0.249h134.947c8.315,0,15.841,3.374,21.291,8.813
    C181.011,354.61,184.374,362.136,184.374,370.451z"/>
  <path style="fill:#74D9EF;" d="M503.576,316.098c-4.9,20.844-12.363,40.702-22.038,59.221c-0.125,0.228-0.249,0.467-0.374,0.695
    H323.474c-8.315,0-15.841-3.374-21.291-8.813c-5.45-5.45-8.813-12.976-8.813-21.29c0-16.63-13.474-30.104-30.104-30.104h-18.685
    c-8.315,0-15.841-3.374-21.291-8.813c-5.45-5.45-8.813-12.976-8.813-21.291c0-16.63,13.474-30.104,30.104-30.104h18.685
    c8.315,0,15.841-3.374,21.291-8.813c5.45-5.45,8.813-12.976,8.813-21.291c0-16.63,13.474-30.104,30.104-30.104h134.947
    c8.315,0,15.841,3.374,21.291,8.813c5.45,5.45,8.813,12.976,8.813,21.291c0,16.63-13.474,30.104-30.104,30.104h-18.685
    c-16.63,0-30.104,13.474-30.104,30.104s13.474,30.104,30.104,30.104h59.636C500.794,315.808,502.206,315.911,503.576,316.098z"/>
</g>
<path style="fill:#C4C4C4;" d="M510.324,164.438c0,32.159-26.076,58.225-58.225,58.225H154.976
  c-32.159,0-58.225-26.066-58.225-58.225c0-5.429,0.747-10.692,2.138-15.675c5.823-20.886,23.003-37.027,44.45-41.387
  C143.859,47.989,192.149,0,251.661,0c31.972,0,60.695,13.848,80.522,35.865c12.363-9.01,27.581-14.336,44.045-14.336
  c41.315,0,74.813,33.488,74.813,74.802c0,3.363-0.228,6.675-0.654,9.924c0.571-0.01,1.132-0.042,1.713-0.042
  c26.72,0,49.235,18,56.086,42.539C509.576,153.746,510.324,159.009,510.324,164.438z"/>
<g>
  <path style="fill:#D3D3D3;" d="M508.185,148.753c-6.851,24.54-29.367,42.54-56.086,42.54H154.976c-26.72,0-49.235-18-56.086-42.529
    c5.823-20.886,23.003-37.027,44.45-41.387C143.859,47.989,192.149,0,251.661,0c31.972,0,60.695,13.848,80.522,35.865
    c12.363-9.01,27.581-14.336,44.045-14.336c41.315,0,74.813,33.488,74.813,74.802c0,3.363-0.228,6.675-0.654,9.924
    c0.571-0.01,1.132-0.042,1.713-0.042C478.819,106.214,501.334,124.214,508.185,148.753z"/>
  <path style="fill:#D3D3D3;" d="M456.096,414.662c-29.647,37.744-69.747,66.892-115.94,83.086C313.82,506.976,285.491,512,256,512
    c-18.332,0-36.207-1.941-53.439-5.626c4.868-16.318,18.446-28.879,35.325-32.304c0.415-47.501,39.041-85.878,86.626-85.878
    c25.567,0,48.539,11.076,64.391,28.681c9.882-7.204,22.059-11.46,35.232-11.46C435.885,405.412,446.846,408.807,456.096,414.662z"
    />
  <path style="fill:#D3D3D3;" d="M398.214,300.61c0,11.896-2.803,23.149-7.796,33.104c-12.156,24.311-37.277,40.993-66.301,40.993
    H30.15c-5.896-11.346-10.962-23.19-15.104-35.46c-8.668-25.609-13.37-53.045-13.37-81.57c0-51.27,15.166-98.999,41.263-138.933
    c11.637,0.042,22.785,2.18,33.072,6.052c8.118,3.042,15.706,7.173,22.598,12.197c25.235-28.027,61.795-45.643,102.466-45.643
    c75.736,0,137.189,61.069,137.843,136.65c28.059,5.689,50.366,27.228,57.155,54.872
    C397.477,288.559,398.214,294.496,398.214,300.61z"/>
</g>
<path style="fill:#E5E5E5;" d="M396.075,282.87c-1.318,5.388-3.218,10.536-5.657,15.384c-12.156,24.311-37.277,40.993-66.301,40.993
  H15.047c-8.668-25.609-13.37-53.045-13.37-81.57c0-51.27,15.166-98.999,41.263-138.933c11.637,0.042,22.785,2.18,33.072,6.052
  c8.118,3.042,15.706,7.173,22.598,12.197c25.235-28.027,61.795-45.643,102.466-45.643c75.736,0,137.189,61.069,137.843,136.65
  C366.979,233.687,389.286,255.227,396.075,282.87z"/>
<g>
  <path style="fill:#797B89;" d="M67.809,221.555c-8.046,0-12.705,4.518-12.705,14.117v37.408c0,9.599,4.658,14.117,12.846,14.117
    c11.293,0,11.999-8.611,12.422-14.117c0.424-5.224,5.222-6.634,10.869-6.634c7.622,0,11.152,1.975,11.152,10.446
    c0,18.774-15.246,29.503-35.432,29.503c-18.492,0-33.879-9.034-33.879-33.314v-37.408c0-24.28,15.386-33.314,33.879-33.314
    c20.186,0,35.432,10.164,35.432,28.092c0,8.469-3.529,10.446-11.011,10.446c-5.928,0-10.728-1.553-11.01-6.634
    C80.231,230.589,79.809,221.555,67.809,221.555z"/>
  <path style="fill:#797B89;" d="M112.413,273.079v-37.408c0-24.28,15.104-33.314,34.585-33.314c19.48,0,34.725,9.034,34.725,33.314
    v37.408c0,24.28-15.246,33.314-34.725,33.314C127.518,306.393,112.413,297.359,112.413,273.079z M159.702,235.671
    c0-9.74-4.799-14.117-12.704-14.117c-7.905,0-12.564,4.376-12.564,14.117v37.408c0,9.74,4.659,14.117,12.564,14.117
    c7.905,0,12.704-4.375,12.704-14.117V235.671z"/>
  <path style="fill:#797B89;" d="M213.929,246.915c10.951,0,21.997,6.892,21.997,19.542c0,20.486-29.172,27.189-29.172,35.781v0.849
    h24.735c2.359,0,4.437,2.927,4.437,6.326s-2.077,6.514-4.437,6.514h-33.609c-2.643,0-6.419-1.794-6.419-4.531v-9.158
    c0-14.822,29.738-23.319,29.738-35.308c0-3.021-1.888-6.703-7.175-6.703c-3.776,0-7.081,1.888-7.081,7.081
    c0,2.738-2.926,5.381-7.742,5.381c-3.776,0-6.608-1.699-6.608-7.647C192.594,253.524,203.166,246.915,213.929,246.915z"/>
</g>
<g>
</g>
<g>
</g>
<g>
</g>
<g>
</g>
<g>
</g>
<g>
</g>
<g>
</g>
<g>
</g>
<g>
</g>
<g>
</g>
<g>
</g>
<g>
</g>
<g>
</g>
<g>
</g>
<g>
</g>
</svg>
