<svg width="38" height="37" viewBox="0 0 38 37" fill="none" xmlns="http://www.w3.org/2000/svg">
<path d="M33.25 0.770857C33.25 0.344779 32.8959 0 32.4583 0H7.91669C6.17018 0 4.75 1.3828 4.75 3.08336V33.9167C4.75 35.6172 6.17018 37 7.91669 37H32.4584C32.7507 37 33.0189 36.8434 33.1565 36.5928C33.2941 36.3421 33.2787 36.038 33.1171 35.8016C32.3331 34.6566 32.3331 33.1767 33.1171 32.0317L33.1051 32.0239C33.1892 31.9015 33.2501 31.7627 33.2501 31.6041V0.770857H33.25ZM31.1997 35.4584H7.91669C7.04388 35.4584 6.33338 34.7666 6.33338 33.9167C6.33338 33.0669 7.04388 32.3751 7.91669 32.3751H31.2189C30.8785 33.3776 30.8599 34.4558 31.1997 35.4584ZM31.6667 30.8334H7.91669C7.34075 30.8334 6.79955 30.9839 6.33338 31.2474V3.08336C6.33338 2.23351 7.04388 1.54171 7.91669 1.54171H31.6667V30.8334Z" fill="white"/>
<path d="M12.6667 17.7134V22.3542C12.6667 23.6294 13.732 24.6667 15.0417 24.6667H22.9584C24.268 24.6667 25.3334 23.6294 25.3334 22.3542V17.7134C26.3199 16.9892 26.9167 15.851 26.9167 14.6459C26.9167 12.287 24.6445 10.4459 22.232 10.8925C21.5149 9.9022 20.3362 9.25 19 9.25C17.6637 9.25 16.4849 9.90227 15.7678 10.8927C13.3521 10.4454 11.0827 12.2867 11.0834 14.6459C11.0833 15.851 11.6802 16.9892 12.6667 17.7134ZM23.75 22.3541C23.75 22.7794 23.3951 23.125 22.9583 23.125H15.0417C14.6049 23.125 14.25 22.7795 14.25 22.3541V21.5833H23.75V22.3541ZM15.1204 12.3462C15.07 12.5916 15.0417 12.8446 15.0417 13.1041C15.0417 13.5302 15.3958 13.875 15.8334 13.875C16.271 13.875 16.6251 13.5302 16.6251 13.1041C16.6251 11.8289 17.6904 10.7916 19.0001 10.7916C20.3097 10.7916 21.3751 11.8289 21.3751 13.1041C21.3751 13.5302 21.7292 13.875 22.1668 13.875C22.6043 13.875 22.9584 13.5302 22.9584 13.1041C22.9584 12.8447 22.9302 12.5917 22.8797 12.3465C24.2218 12.282 25.3341 13.3466 25.3334 14.6459C25.3334 15.4694 24.8889 16.2132 24.1436 16.6354C23.9001 16.7739 23.7501 17.0276 23.7501 17.3016V20.0417H14.25V17.3016C14.25 17.0276 14.1 16.7739 13.8565 16.6354C13.1112 16.2131 12.6667 15.4694 12.6667 14.6459C12.6667 13.3464 13.7771 12.281 15.1204 12.3462Z" fill="white"/>
</svg>
