<svg width="40" height="40" viewBox="0 0 40 40" fill="none" xmlns="http://www.w3.org/2000/svg">
<path d="M35 0.833359C35 0.372734 34.6273 0 34.1666 0H8.33336C6.49492 0 5 1.49492 5 3.33336V36.6667C5 38.5051 6.49492 40 8.33336 40H34.1667C34.4744 40 34.7567 39.8307 34.9016 39.5598C35.0464 39.2887 35.0302 38.96 34.8601 38.7045C34.0348 37.4666 34.0348 35.8667 34.8601 34.6289L34.8475 34.6205C34.936 34.4881 35.0001 34.338 35.0001 34.1666V0.833359H35ZM32.8418 38.3334H8.33336C7.41461 38.3334 6.66672 37.5855 6.66672 36.6667C6.66672 35.748 7.41461 35.0001 8.33336 35.0001H32.862C32.5037 36.0839 32.4841 37.2495 32.8418 38.3334ZM33.3334 33.3334H8.33336C7.72711 33.3334 7.15742 33.4961 6.66672 33.7809V3.33336C6.66672 2.41461 7.41461 1.66672 8.33336 1.66672H33.3334V33.3334Z" fill="#92BBB8"/>
<path d="M13.3334 19.1496V24.1667C13.3334 25.5453 14.4548 26.6667 15.8334 26.6667H24.1667C25.5453 26.6667 26.6667 25.5453 26.6667 24.1667V19.1496C27.7052 18.3667 28.3334 17.1363 28.3334 15.8334C28.3334 13.2832 25.9416 11.2928 23.4021 11.7757C22.6473 10.7051 21.4066 10 20 10C18.5934 10 17.3525 10.7052 16.5977 11.7759C14.0549 11.2923 11.666 13.283 11.6667 15.8334C11.6667 17.1363 12.2949 18.3667 13.3334 19.1496ZM25 24.1666C25 24.6264 24.6265 25 24.1666 25H15.8334C15.3736 25 15 24.6265 15 24.1666V23.3333H25V24.1666ZM15.9163 13.3473C15.8631 13.6125 15.8334 13.8861 15.8334 14.1666C15.8334 14.6273 16.2061 15 16.6667 15C17.1274 15 17.5001 14.6273 17.5001 14.1666C17.5001 12.788 18.6215 11.6666 20.0001 11.6666C21.3787 11.6666 22.5001 12.788 22.5001 14.1666C22.5001 14.6273 22.8728 15 23.3334 15C23.7941 15 24.1668 14.6273 24.1668 14.1666C24.1668 13.8862 24.137 13.6127 24.0839 13.3476C25.4966 13.2778 26.6675 14.4288 26.6668 15.8334C26.6668 16.7237 26.1988 17.5277 25.4144 17.9842C25.158 18.134 25.0002 18.4082 25.0002 18.7045V21.6667H15V18.7045C15 18.4082 14.8421 18.134 14.5858 17.9842C13.8013 17.5277 13.3334 16.7237 13.3334 15.8334C13.3334 14.4285 14.5023 13.2768 15.9163 13.3473Z" fill="#92BBB8"/>
</svg>
