<svg width="35" height="30" viewBox="0 0 35 30" fill="none" xmlns="http://www.w3.org/2000/svg">
<path d="M35 18.2901C35 22.3046 33.7781 26.1153 31.4664 29.3109C31.0103 29.9417 30.1526 30.064 29.5513 29.5885C28.9491 29.1121 28.8303 28.2156 29.2856 27.586C31.2352 24.8913 32.2656 21.6767 32.2656 18.2901C32.2656 9.75681 25.6564 2.85914 17.5 2.85914C9.338 2.85914 2.73438 9.76212 2.73438 18.2901C2.73438 21.6767 3.76484 24.8913 5.71415 27.586C6.1697 28.2156 6.05087 29.1121 5.44872 29.5885C4.84631 30.0648 3.98914 29.9406 3.53333 29.3109C1.22192 26.1153 0 22.3046 0 18.2901C0 8.17591 7.83249 0 17.5 0C27.1729 0 35 8.1815 35 18.2901ZM26.1627 9.68059C26.6965 10.2387 26.6965 11.1439 26.1627 11.7021L21.7062 16.3619C22.0731 17.0691 22.282 17.8788 22.282 18.7383C22.282 21.4955 20.1366 23.7384 17.5 23.7384C14.8631 23.7384 12.718 21.4955 12.718 18.7383C12.718 15.9813 14.8631 13.7381 17.5 13.7381C18.3222 13.7381 19.0963 13.9565 19.7727 14.3401L24.2291 9.68031C24.7632 9.12216 25.6286 9.12216 26.1627 9.68059ZM19.5476 18.7385C19.5476 17.558 18.629 16.5975 17.5 16.5975C16.371 16.5975 15.4524 17.558 15.4524 18.7385C15.4524 19.919 16.371 20.8795 17.5 20.8795C18.629 20.8795 19.5476 19.919 19.5476 18.7385Z" fill="#FFFFFE"/>
</svg>
