<svg id="_x33_0" enable-background="new 0 0 64 64" height="512" viewBox="0 0 64 64" width="512" xmlns="http://www.w3.org/2000/svg"><g><g><g><path d="m32 50c0 3.32 1.34 6.32 3.51 8.49.16.16.32.31.49.46v3.05h-12-16c.78-6.26 4.67-11.44 10-14.1 2.45-1.22 5.22-1.9 8.12-1.9h3.86c.81.54 1.55 1.16 2.21 1.84h.01c-.13.7-.2 1.42-.2 2.16z" fill="#b4dd7f"/></g><g><path d="m31.5 36-1.5 2c-1.28-1.28-2-3.02-2-4.83v-.17l1.48-2.23c.34-.5.52-1.09.52-1.7 0-1.7-1.37-3.07-3.07-3.07h-.95l-.46-4.6c-.3-3.06-2.89-5.4-5.97-5.4h-11.55-1.06c-1.36 0-2.6-.55-3.49-1.45-.9-.89-1.45-2.13-1.45-3.49 0-1.88 1.06-3.59 2.73-4.43l1.27-.63c0-2.21 1.79-4 4-4h4.07c5.83 0 11.14 2.29 15.07 6 .15.14.3.28.44.42 2.13 2.14 3.83 4.71 4.94 7.58.95 2.46 1.48 5.13 1.48 7.93 0 1.38-.16 2.74-.46 4.07-.57 2.47-1.65 4.81-3.18 6.86z" fill="#656d78"/></g><g><path d="m29.14 8h11.7c-.54 1.22-.84 2.58-.84 4s.3 2.78.84 4h-6.32c-1.11-2.87-2.81-5.44-4.94-7.58-.14-.14-.29-.28-.44-.42z" fill="#ffeaa7"/></g><g><path d="m35.54 28h5.97.01c-.34.94-.52 1.95-.52 3v2c0 1.05.18 2.06.51 3h-10.01l.86-1.14c1.53-2.05 2.61-4.39 3.18-6.86z" fill="#ffeaa7"/></g><g><path d="m50 2c4.89 0 12 3.9 12 10s-7.11 10-12 10c-4.09 0-7.62-2.47-9.16-6-.54-1.22-.84-2.58-.84-4s.3-2.78.84-4c1.54-3.53 5.07-6 9.16-6z" fill="#fcd770"/></g><g><path d="m50 6c3.31 0 8 2.69 8 6s-4.69 6-8 6-6-2.69-6-6 2.69-6 6-6z" fill="#ffeaa7"/></g><g><path d="m60 22c1.1 0 2 .9 2 2 0 .55-.22 1.05-.59 1.41-.36.37-.86.59-1.41.59h-6c-1.1 0-2 .9-2 2 0 .55.22 1.05.59 1.41.36.37.86.59 1.41.59h6c1.1 0 2 .9 2 2 0 .55-.22 1.05-.59 1.41-.36.37-.86.59-1.41.59h-6c-1.1 0-2 .9-2 2 0 .55.22 1.05.59 1.41.36.37.86.59 1.41.59h6c1.1 0 2 .9 2 2 0 .55-.22 1.05-.59 1.41-.36.37-.86.59-1.41.59h-7.05c-.15-.17-.3-.33-.46-.49-2.17-2.17-5.17-3.51-8.49-3.51-.48 0-.96.03-1.43.09-.44-.64-.8-1.34-1.06-2.09-.33-.94-.51-1.95-.51-3v-2c0-1.05.18-2.06.52-3 1.23-3.5 4.56-6 8.48-6z" fill="#ffeaa7"/></g><g><path d="m52.49 58.49c-2.17 2.17-5.17 3.51-8.49 3.51-3.08 0-5.88-1.15-8-3.05-.17-.15-.33-.3-.49-.46-2.17-2.17-3.51-5.17-3.51-8.49 0-.74.07-1.46.2-2.16.44-2.45 1.63-4.64 3.31-6.33 1.86-1.85 4.32-3.1 7.06-3.42.47-.06.95-.09 1.43-.09 3.32 0 6.32 1.34 8.49 3.51.16.16.31.32.46.49 1.9 2.12 3.05 4.92 3.05 8 0 3.32-1.34 6.32-3.51 8.49z" fill="#69d6f4"/></g><g><path d="m45.41 48.59c.37.36.59.86.59 1.41 0 1.1-.9 2-2 2s-2-.9-2-2c0-.55.22-1.05.59-1.41.36-.37.86-.59 1.41-.59s1.05.22 1.41.59z" fill="#fcd770"/></g><g><path d="m17.98 41.5-4.74.48c-.16.01-.32.02-.48.02-2.63 0-4.76-2.13-4.76-4.76v-1.24-4h-.02c-1.28 0-2.51-.51-3.41-1.41l-.59-.59 1.59-1.98c1.57-1.96 2.43-4.39 2.43-6.89v-5.13h11.55c3.08 0 5.67 2.34 5.97 5.4l.46 4.6h.95c1.7 0 3.07 1.37 3.07 3.07 0 .61-.18 1.2-.52 1.7l-1.48 2.23v.17c0 1.81.72 3.55 2 4.83l-.02 8h-3.86c-2.9 0-5.67.68-8.12 1.9z" fill="#f0d0b4"/></g></g><g><path d="m50 19c3.624 0 9-2.939 9-7s-5.376-7-9-7c-3.859 0-7 3.14-7 7s3.141 7 7 7zm0-12c2.992 0 7 2.472 7 5s-4.008 5-7 5c-2.757 0-5-2.243-5-5s2.243-5 5-5z"/><path d="m54 27h6c1.654 0 3-1.346 3-3s-1.346-3-3-3h-3.047c3.32-1.885 6.047-5.008 6.047-9 0-6.715-7.699-11-13-11-4.264 0-7.961 2.444-9.786 6h-10.695c-4.078-3.725-9.501-6-15.446-6h-4.073c-2.534 0-4.611 1.902-4.934 4.349l-.78.39c-2.027 1.013-3.286 3.051-3.286 5.317 0 3.277 2.667 5.944 5.944 5.944h.056v4.128c0 2.271-.783 4.495-2.205 6.264l-2.153 2.68 1.219 1.221c.864.863 1.951 1.422 3.14 1.623v4.321c-.001 3.178 2.584 5.763 5.762 5.763.191 0 .383-.009.573-.028l3.65-.365.012 4.72c-5.326 2.88-9.196 8.19-9.991 14.549l-.14 1.124h30.133v-2.063c2.023 1.299 4.422 2.063 7 2.063 7.168 0 13-5.832 13-13 0-2.578-.764-4.977-2.063-7h5.063c1.654 0 3-1.346 3-3s-1.346-3-3-3h-6c-.552 0-1-.449-1-1s.448-1 1-1h6c1.654 0 3-1.346 3-3s-1.346-3-3-3h-6c-.552 0-1-.449-1-1s.448-1 1-1zm-4-24c4.379 0 11 3.589 11 9s-6.621 9-11 9c-4.963 0-9-4.038-9-9s4.037-9 9-9zm1.071 41.343 1.377-1.377c1.391 1.667 2.294 3.751 2.501 6.034h-1.949v2h1.949c-.207 2.283-1.111 4.366-2.501 6.034l-1.377-1.377-1.414 1.414 1.377 1.377c-1.667 1.391-3.751 2.295-6.034 2.502v-1.95h-2v1.949c-2.283-.207-4.366-1.111-6.034-2.502l1.377-1.377-1.414-1.414-1.377 1.377c-1.391-1.667-2.294-3.751-2.501-6.034h1.949v-2h-1.949c.207-2.283 1.111-4.366 2.501-6.034l1.377 1.377 1.414-1.414-1.377-1.377c1.667-1.391 3.751-2.295 6.034-2.502v1.951h2v-1.949c2.283.207 4.366 1.111 6.034 2.502l-1.377 1.377zm-19.431 1.647c-.212-.172-.435-.329-.656-.489l.016-7.167 1-1.334h8.855c.052.12.089.245.146.363-4.418 1.049-7.97 4.35-9.361 8.627zm4.658-16.99h3.903c-.131.646-.201 1.315-.201 2v2c0 .68.092 1.345.226 2h-6.754c1.283-1.821 2.238-3.857 2.826-6zm4.543-2h-4.092c.166-1.014.251-2.043.251-3.073 0-2.414-.377-4.74-1.072-6.927h4.286c1.148 2.237 3.035 4.031 5.343 5.055-2.094 1.044-3.773 2.794-4.716 4.945zm-1.415-12h-4.236c-.932-2.197-2.202-4.215-3.737-6h7.973c-.271.955-.426 1.959-.426 3s.155 2.045.426 3zm-36.426-3.944c0-1.504.836-2.856 2.181-3.528l.072-.036c.639 2.025 2.513 3.508 4.747 3.508h1v-2h-1c-1.654 0-3-1.346-3-3s1.346-3 3-3h4.073c11.539 0 20.927 9.388 20.927 20.927 0 3.702-1.223 7.371-3.443 10.332l-1.591 2.12c-.602-.909-.941-1.967-.965-3.078l1.315-1.973c.448-.671.684-1.452.684-2.258 0-2.244-1.826-4.07-4.07-4.07l-.412-3.696c-.36-3.594-3.354-6.304-6.966-6.304h-12.608c-2.174 0-3.944-1.77-3.944-3.944zm15.986 31.351 1.889-.189c1.737-.174 3.239-1.21 4.02-2.771l-1.789-.894c-.472.943-1.38 1.569-2.43 1.674l-7.538.754c-2.201.215-4.138-1.544-4.138-3.744v-.237h4c2.206 0 4-1.794 4-4h-2c0 1.103-.897 2-2 2h-4v-3l-.018-1h-1c-1 0-1.941-.381-2.659-1.073l1.03-1.282c1.708-2.123 2.647-4.792 2.647-7.517v-4.128h10.552c2.58 0 4.719 1.936 4.976 4.503l.549 5.497h1.853c1.142 0 2.07.929 2.07 2.07 0 .41-.12.807-.348 1.148l-1.652 2.479v.474c0 1.948.707 3.787 1.999 5.226l-.015 6.603h-2.86c-2.508 0-4.913.494-7.128 1.38zm16.014 18.593h-10v-1c0-3.009.994-5.992 2.8-8.4l-1.6-1.2c-2.063 2.752-3.2 6.161-3.2 9.6v1h-13.83c1.55-8.057 8.647-14 16.954-14h3.529c.526.368 1.02.778 1.483 1.22-.08.584-.136 1.175-.136 1.78 0 3.675 1.54 6.992 4 9.359zm19-30h6c.552 0 1 .449 1 1s-.448 1-1 1h-6c-1.654 0-3 1.346-3 3s1.346 3 3 3h6c.552 0 1 .449 1 1s-.448 1-1 1h-6.641c-2.367-2.46-5.684-4-9.359-4-.296 0-.587.025-.878.044-.722-1.225-1.122-2.606-1.122-4.044v-2c0-4.411 3.589-8 8-8h10c.552 0 1 .449 1 1s-.448 1-1 1h-6c-1.654 0-3 1.346-3 3s1.346 3 3 3z"/><path d="m47.293 45.293-2.008 2.008c-.391-.188-.823-.301-1.285-.301s-.894.113-1.285.301l-3.008-3.008-1.414 1.414 3.008 3.008c-.188.391-.301.823-.301 1.285 0 1.654 1.346 3 3 3s3-1.346 3-3c0-.462-.113-.894-.301-1.285l2.008-2.008zm-3.293 5.707c-.552 0-1-.449-1-1s.448-1 1-1 1 .449 1 1-.448 1-1 1z"/><path d="m16.296 24.731c-.35.176-.74.269-1.13.269-.955 0-1.813-.531-2.24-1.385l-.031-.063-1.758.957c.769 1.536 2.313 2.49 4.029 2.49.7 0 1.401-.167 2.029-.483l1.237-.625-.9-1.785z"/></g></g></svg>
