<svg id="Layer_1" enable-background="new 0 0 512 512" height="512" viewBox="0 0 512 512" width="512" xmlns="http://www.w3.org/2000/svg"><g><g><path d="m295.695 40.651c-21.363 12.371-42.711 28.305-63.157 48.752-121.21 121.21-84.03 274.09-84.03 274.09l260.624-204.619z" fill="#66b3ff"/><path d="m148.508 363.492s152.88 37.18 274.09-84.03c20.447-20.446 36.381-41.794 48.752-63.157l-87.827-87.827z" fill="#4d88ff"/></g><g><path d="m295.695 40.651c9.595 41.374 30.512 80.655 62.756 112.898l93.873-42.71 54.303-105.466s-105.652-25.689-210.932 35.278z" fill="#f9f9f9"/><path d="m506.627 5.373-148.176 148.176c32.244 32.244 71.525 53.161 112.899 62.756 60.966-105.28 35.277-210.932 35.277-210.932z" fill="#e2dff4"/></g><g><g><path d="m8.609 379.259-8.609-8.609 23.212-23.212c34.278-34.278 89.853-34.278 124.131 0l8.609 8.609-3.447 19.522-19.765 3.69c-34.277 34.278-89.853 34.278-124.131 0z" fill="#4d88ff"/><path d="m132.741 503.391 8.609 8.609 23.212-23.212c34.278-34.278 34.278-89.853 0-124.131l-8.609-8.609-23.212 23.212c-34.278 34.277-34.278 89.853 0 124.131z" fill="#005edf"/></g><g><path d="m382.549 62.627h29.988v29.988h-29.988z" fill="#08475e" transform="matrix(.707 -.707 .707 .707 61.551 303.84)"/></g></g></g></svg>