<svg id="Capa_1" enable-background="new 0 0 513.115 513.115" height="512" viewBox="0 0 513.115 513.115" width="512" xmlns="http://www.w3.org/2000/svg"><g><path d="m216.558 465.475v.14c0 22.09 17.91 40 40 40s40-17.91 40-40c0-.05 0-.09 0-.14z" fill="#d9ecfd"/><path d="m294.058 465.618h-75c-12.426 0-22.5-10.074-22.5-22.5 0-12.426 10.074-22.5 22.5-22.5h75c12.426 0 22.5 10.074 22.5 22.5 0 12.427-10.074 22.5-22.5 22.5z" fill="#618baa"/><path d="m249.058 465.615h-30c-12.43 0-22.5-10.07-22.5-22.5 0-6.21 2.52-11.83 6.59-15.91 4.07-4.07 9.69-6.59 15.91-6.59h30c-6.22 0-11.84 2.52-15.91 6.59-4.07 4.08-6.59 9.7-6.59 15.91 0 12.43 10.07 22.5 22.5 22.5z" fill="#456b93"/><path d="m294.058 420.618h-75c-12.426 0-22.5-10.074-22.5-22.5 0-12.426 10.074-22.5 22.5-22.5h75c12.426 0 22.5 10.074 22.5 22.5 0 12.427-10.074 22.5-22.5 22.5z" fill="#618baa"/><path d="m249.058 420.615h-30c-12.43 0-22.5-10.07-22.5-22.5 0-6.21 2.52-11.83 6.59-15.91 4.07-4.07 9.69-6.59 15.91-6.59h30c-6.22 0-11.84 2.52-15.91 6.59-4.07 4.08-6.59 9.7-6.59 15.91 0 12.43 10.07 22.5 22.5 22.5z" fill="#456b93"/><path d="m393.051 194.125c0-74.838-60.23-135.609-134.861-136.484-73.92-.866-135.565 57.9-138.046 131.784-1.547 46.059 19.738 87.22 53.404 113.049 14.636 11.228 23.01 28.793 23.01 47.24 0 14.306 11.598 25.904 25.904 25.904h68.192c14.306 0 25.904-11.598 25.904-25.904v-.002c0-18.726 8.85-36.24 23.641-47.724 32.157-24.969 52.852-63.997 52.852-107.863z" fill="#ffe177"/><path d="m234.148 368.035c4.69 4.68 11.16 7.58 18.31 7.58h-30c-7.15 0-13.62-2.9-18.31-7.58-4.69-4.69-7.59-11.17-7.59-18.32 0-18.45-8.37-36.01-23.01-47.24-33.67-25.83-54.95-66.99-53.4-113.05 2.48-73.88 64.12-132.65 138.04-131.78 4.52.05 8.99.33 13.39.81-66.33 7.33-119.14 62.7-121.43 130.97-1.55 46.06 19.73 87.22 53.4 113.05 14.64 11.23 23.01 28.79 23.01 47.24 0 7.15 2.9 13.63 7.59 18.32z" fill="#ffc85e"/><g><path d="m132.095 228.167c-20.242-74.458 32.289-152.843 109.022-162.105 4.112-.497 7.043-4.232 6.547-8.345-.496-4.112-4.224-7.034-8.345-6.548-85.774 10.356-144.354 97.6-121.699 180.934 2.34 4.496 5.408 6.253 9.205 5.27 3.997-1.088 6.356-5.209 5.27-9.206z"/><path d="m273.784 51.168c-4.112-.49-7.844 2.447-8.334 6.561s2.447 7.845 6.561 8.334c64.727 7.708 113.537 62.763 113.537 128.063 0 40.135-18.206 77.289-49.947 101.934-16.46 12.767-26.543 32.773-26.543 53.656 0 12.548-11.973 18.467-22.5 18.4v-142.179h16.657c17.369 0 31.5-14.131 31.5-31.5s-14.131-31.5-31.5-31.5h-.157c-17.369 0-31.5 14.131-31.5 31.5v16.5h-30v-16.5c0-17.369-14.131-31.5-31.5-31.5h-.158c-17.369 0-31.5 14.131-31.5 31.5s14.131 31.5 31.5 31.5h16.657v142.179c-10.539.073-22.5-5.841-22.5-18.4 0-20.844-9.699-40.729-25.944-53.19-14.105-10.824-25.631-24.152-34.256-39.613-2.019-3.617-6.586-4.915-10.204-2.896s-4.914 6.587-2.896 10.204c9.627 17.256 22.487 32.128 38.225 44.206 12.57 9.643 20.075 25.078 20.075 41.289 0 8.834 4.529 19.023 11.245 24.989-6.685 5.374-11.245 14.93-11.245 23.412 0 8.948 3.943 16.989 10.177 22.49-6.073 5.361-10.177 14.539-10.177 22.51.9 14.072 7.694 23.546 20.382 28.422 2.926 23.405 22.933 41.578 47.118 41.578 24.184 0 44.19-18.172 47.117-41.576 11.315-3.817 20.383-16.466 20.383-28.424 0-8.948-3.943-16.988-10.177-22.49 6.078-5.366 10.177-14.531 10.177-22.51 0-9.462-4.408-17.909-11.273-23.412 6.907-6.124 11.273-15.054 11.273-24.989 0-16.106 8.163-32.05 20.739-41.806 35.431-27.51 55.751-68.982 55.751-113.784.001-72.894-54.495-134.353-126.763-142.958zm12.774 143.269c0-9.098 7.402-16.5 16.5-16.5h.157c9.098 0 16.5 7.402 16.5 16.5s-7.402 16.5-16.5 16.5h-16.657zm-76.658 16.5c-9.098 0-16.5-7.402-16.5-16.5s7.402-16.5 16.5-16.5h.157c9.098 0 16.5 7.402 16.5 16.5v16.5zm31.658 15h30v142.179h-30zm15 272.178c-15.339 0-28.221-10.685-31.617-25h63.234c-3.396 14.316-16.278 25-31.617 25zm37.5-115c8.271 0 15 6.729 15 15-.857 9.142-5.857 14.142-15 15h-10.83c-4.143 0-7.5 3.357-7.5 7.5s3.357 7.5 7.5 7.5h10.83c8.271 0 15 6.729 15 15 0 7.74-6.945 15-15 15h-75c-9.297-1.045-14.297-6.045-15-15 .858-9.142 5.858-14.142 15-15h31.48c4.142 0 7.5-3.357 7.5-7.5s-3.357-7.5-7.5-7.5h-31.48c-8.271 0-15-6.729-15-15 .858-9.142 5.858-14.142 15-15z"/></g><path d="m256.558 36c-4.142 0-7.5-3.357-7.5-7.5v-21c0-4.143 3.358-7.5 7.5-7.5 4.143 0 7.5 3.357 7.5 7.5v21c0 4.143-3.358 7.5-7.5 7.5z"/><g><path d="m140.592 84.034c-1.919 0-3.839-.732-5.303-2.196l-14.849-14.849c-2.929-2.93-2.929-7.678 0-10.606 2.929-2.93 7.678-2.929 10.606-.001l14.849 14.849c2.929 2.93 2.929 7.678 0 10.606-1.464 1.465-3.383 2.197-5.303 2.197z"/><path d="m387.372 330.814c-1.919 0-3.839-.732-5.304-2.196l-14.848-14.848c-2.929-2.93-2.929-7.678 0-10.607 2.93-2.928 7.678-2.928 10.607 0l14.849 14.849c2.929 2.93 2.929 7.678 0 10.607-1.465 1.463-3.385 2.195-5.304 2.195z"/></g><g><path d="m92.558 200h-21c-4.142 0-7.5-3.357-7.5-7.5s3.358-7.5 7.5-7.5h21c4.142 0 7.5 3.357 7.5 7.5s-3.358 7.5-7.5 7.5z"/><path d="m441.558 200h-21c-4.143 0-7.5-3.357-7.5-7.5s3.357-7.5 7.5-7.5h21c4.143 0 7.5 3.357 7.5 7.5s-3.358 7.5-7.5 7.5z"/></g><g><path d="m125.743 330.814c-1.919 0-3.839-.732-5.303-2.197-2.929-2.929-2.929-7.677 0-10.606l14.849-14.849c2.929-2.928 7.678-2.929 10.606.001 2.929 2.929 2.929 7.677 0 10.606l-14.849 14.849c-1.464 1.464-3.384 2.196-5.303 2.196z"/><path d="m372.523 84.034c-1.919 0-3.839-.732-5.304-2.196-2.929-2.93-2.929-7.678 0-10.607l14.849-14.849c2.93-2.928 7.678-2.928 10.607 0 2.929 2.93 2.929 7.678 0 10.607l-14.849 14.849c-1.464 1.464-3.384 2.196-5.303 2.196z"/></g></g></svg>
