<svg width="504" height="504" viewBox="0 0 504 504" fill="none" xmlns="http://www.w3.org/2000/svg">
<path d="M339.688 0C339.688 0 384.213 108.927 193.387 182.093C89.6967 221.838 10.0565 323.709 105.147 481.074C113.022 410.734 146.79 255.645 291.989 220.254C291.989 220.254 156.846 270.788 144.908 499.532C214.35 509.282 377.211 515.833 425.564 374.501C489.415 187.77 339.688 0 339.688 0Z" fill="#828282"/>
<path d="M339.688 0C339.688 0 384.213 108.927 193.387 182.093C89.6967 221.838 10.0565 323.709 105.147 481.074C113.022 410.734 146.79 255.645 291.989 220.254C291.989 220.254 156.846 270.788 144.908 499.532C214.35 509.282 377.211 515.833 425.564 374.501C489.415 187.77 339.688 0 339.688 0Z" fill="#4F514D"/>
<path d="M144.971 498.58C292.39 439.746 399.656 301.919 414.46 137.387C384.323 56.0931 339.688 0 339.688 0C339.688 0 384.213 108.927 193.387 182.093C89.6967 221.838 10.0565 323.709 105.147 481.074C113.022 410.734 146.79 255.645 291.989 220.254C291.981 220.255 157.24 270.663 144.971 498.58Z" fill="#A8ABA6"/>
</svg>
