<svg width="505" height="505" viewBox="0 0 505 505" fill="none" xmlns="http://www.w3.org/2000/svg">
<g clip-path="url(#clip0)">
<path d="M339.772 0C339.772 0 384.308 108.954 193.435 182.138C89.719 221.893 10.059 323.789 105.173 481.193C113.05 410.836 146.826 255.708 292.061 220.309C292.061 220.309 156.885 270.855 144.944 499.656C214.403 509.408 377.305 515.961 425.67 374.594C489.536 187.817 339.772 0 339.772 0Z" fill="#3A7F0D"/>
<path d="M145.007 498.704C292.463 439.855 399.755 301.994 414.563 137.421C384.418 56.107 339.772 0 339.772 0C339.772 0 384.308 108.954 193.435 182.138C89.719 221.893 10.059 323.789 105.173 481.193C113.05 410.836 146.826 255.708 292.061 220.309C292.053 220.31 157.279 270.73 145.007 498.704Z" fill="#49A010"/>
</g>
<defs>
<clipPath id="clip0">
<rect width="504.125" height="504.125" fill="white"/>
</clipPath>
</defs>
</svg>
