<svg width="100" height="100" viewBox="0 0 100 100" fill="none" xmlns="http://www.w3.org/2000/svg">
<rect width="100" height="100" fill="#87A23F"/>
<rect x="0.5" y="0.5" width="99" height="99" stroke="white" stroke-opacity="0.5"/>
<path d="M30.501 6C22.9073 6 19.8998 12.6188 19.8998 24.75C19.8998 39.4575 34.8923 47.7187 34.7723 47.6025C34.8923 47.7187 29.601 45.51 25.5623 43.7513C19.4085 46.3725 16.656 53.7412 16.656 53.7412C16.656 53.7412 11.5185 65.6475 22.9073 66C34.2998 66 39.6173 49.2713 41.2373 43.6988C51.501 8.46 30.501 6 30.501 6Z" fill="black"/>
<path d="M59.2823 22.9163C53.1023 21.0825 44.9948 39.3525 43.2323 43.365C41.4698 47.3775 33.8235 62.25 39.2385 63.9675C44.496 64.905 48.5348 54.36 49.0785 47.25C60.5685 34.9013 62.091 23.7488 59.2823 22.9163Z" fill="#FFAA06"/>
<path d="M25.12 27.776V13.4C25.12 12.616 25.328 12.224 25.744 12.224H38.08C38.288 12.224 38.448 12.312 38.56 12.488C38.688 12.664 38.752 12.872 38.752 13.112C38.752 13.704 38.528 14 38.08 14H26.896V18.704H35.92C36.128 18.704 36.288 18.792 36.4 18.968C36.528 19.144 36.592 19.352 36.592 19.592C36.592 20.184 36.368 20.48 35.92 20.48H26.896V27.224H38.08C38.288 27.224 38.448 27.312 38.56 27.488C38.688 27.664 38.752 27.872 38.752 28.112C38.752 28.704 38.528 29 38.08 29H25.744C25.472 29 25.296 28.904 25.216 28.712C25.152 28.52 25.12 28.208 25.12 27.776Z" fill="#FFAA06"/>
<path d="M45.157 28.112C45.157 28.048 45.173 27.968 45.205 27.872L46.837 23.552H45.853C45.421 23.552 45.205 23.248 45.205 22.64C45.205 22.4 45.261 22.2 45.373 22.04C45.485 21.864 45.645 21.776 45.853 21.776H47.509L50.845 13.04C50.973 12.784 51.149 12.584 51.373 12.44C51.597 12.28 51.797 12.2 51.973 12.2C52.149 12.2 52.349 12.28 52.573 12.44C52.797 12.6 52.965 12.8 53.077 13.04L56.413 21.776H57.973C58.181 21.776 58.341 21.864 58.453 22.04C58.581 22.216 58.645 22.424 58.645 22.664C58.645 23.256 58.421 23.552 57.973 23.552H57.109L58.765 27.872C58.797 27.968 58.813 28.048 58.813 28.112C58.813 28.352 58.693 28.56 58.453 28.736C58.213 28.912 57.973 29 57.733 29C57.477 29 57.285 28.88 57.157 28.64L55.213 23.552H48.757L46.813 28.64C46.685 28.88 46.493 29 46.237 29C45.997 29 45.757 28.912 45.517 28.736C45.277 28.56 45.157 28.352 45.157 28.112ZM49.429 21.776H54.517L51.973 15.08L49.429 21.776ZM63.208 13.064C63.208 12.824 63.264 12.624 63.376 12.464C63.488 12.288 63.648 12.2 63.856 12.2H75.712C75.92 12.2 76.08 12.288 76.192 12.464C76.32 12.64 76.384 12.848 76.384 13.088C76.384 13.68 76.16 13.976 75.712 13.976H70.528V28.328C70.528 28.536 70.44 28.704 70.264 28.832C70.088 28.944 69.88 29 69.64 29C69.048 29 68.752 28.776 68.752 28.328V13.976H63.856C63.424 13.976 63.208 13.672 63.208 13.064ZM54.7438 52.456C54.7438 52.12 54.8398 51.872 55.0318 51.712L62.8078 41.512C63.0158 41.304 63.2318 41.2 63.4558 41.2C63.9678 41.2 64.2238 41.632 64.2238 42.496V51.592H65.3518C65.5598 51.592 65.7198 51.68 65.8318 51.856C65.9598 52.032 66.0238 52.24 66.0238 52.48C66.0238 53.072 65.7998 53.368 65.3518 53.368H64.2238V57.328C64.2238 57.536 64.1358 57.704 63.9598 57.832C63.7838 57.944 63.5758 58 63.3358 58C62.7438 58 62.4478 57.776 62.4478 57.328V53.368H55.3918C54.9598 53.368 54.7438 53.064 54.7438 52.456ZM57.3598 51.592H62.4478V44.92L57.3598 51.592ZM11.3845 78.48C11.3845 76.864 11.8245 75.392 12.7045 74.064C13.5845 72.736 14.7205 71.72 16.1125 71.016C17.5045 70.296 18.9765 69.936 20.5285 69.936C21.9685 69.936 23.3045 70.432 24.5365 71.424C24.6645 71.536 24.7285 71.68 24.7285 71.856C24.7285 72.112 24.6245 72.352 24.4165 72.576C24.2085 72.784 23.9925 72.888 23.7685 72.888C23.6085 72.888 23.4725 72.832 23.3605 72.72C22.5925 72.048 21.6325 71.712 20.4805 71.712C18.3685 71.712 16.6245 72.392 15.2485 73.752C13.8725 75.112 13.1845 76.68 13.1845 78.456C13.1845 79.368 13.2805 80.224 13.4725 81.024C13.6805 81.808 14.0005 82.544 14.4325 83.232C14.8805 83.904 15.5045 84.44 16.3045 84.84C17.1205 85.24 18.0725 85.44 19.1605 85.44C20.6165 85.44 21.7285 84.92 22.4965 83.88C23.2805 82.84 23.6885 81.504 23.7205 79.872H18.8965C18.4645 79.872 18.2485 79.568 18.2485 78.96C18.2485 78.72 18.3045 78.52 18.4165 78.36C18.5285 78.184 18.6885 78.096 18.8965 78.096H24.7765C25.0325 78.096 25.2005 78.192 25.2805 78.384C25.3605 78.56 25.4005 78.856 25.4005 79.272C25.4005 81.656 24.8725 83.576 23.8165 85.032C22.7765 86.488 21.3445 87.216 19.5205 87.216C18.1445 87.216 16.9205 86.976 15.8485 86.496C14.7765 86.016 13.9205 85.36 13.2805 84.528C12.6565 83.696 12.1845 82.776 11.8645 81.768C11.5445 80.744 11.3845 79.648 11.3845 78.48ZM32.3575 78.648C32.3575 76.2 33.0375 74.16 34.3975 72.528C35.7735 70.896 37.4055 70.08 39.2935 70.08C41.1815 70.08 42.7735 70.92 44.0695 72.6C45.3815 74.264 46.0375 76.256 46.0375 78.576C46.0375 81.136 45.3975 83.2 44.1175 84.768C42.8535 86.32 41.2455 87.104 39.2935 87.12C37.4055 87.12 35.7735 86.328 34.3975 84.744C33.0375 83.16 32.3575 81.128 32.3575 78.648ZM34.1335 78.672C34.1335 80.496 34.6375 82.064 35.6455 83.376C36.6695 84.688 37.8855 85.344 39.2935 85.344C40.6855 85.344 41.8615 84.688 42.8215 83.376C43.7815 82.048 44.2615 80.464 44.2615 78.624C44.2615 76.864 43.7735 75.296 42.7975 73.92C41.8375 72.544 40.6695 71.856 39.2935 71.856C37.8855 71.856 36.6695 72.552 35.6455 73.944C34.6375 75.336 34.1335 76.912 34.1335 78.672ZM53.1887 78.648C53.1887 76.2 53.8687 74.16 55.2287 72.528C56.6047 70.896 58.2367 70.08 60.1247 70.08C62.0127 70.08 63.6047 70.92 64.9007 72.6C66.2127 74.264 66.8687 76.256 66.8687 78.576C66.8687 81.136 66.2287 83.2 64.9487 84.768C63.6847 86.32 62.0767 87.104 60.1247 87.12C58.2367 87.12 56.6047 86.328 55.2287 84.744C53.8687 83.16 53.1887 81.128 53.1887 78.648ZM54.9647 78.672C54.9647 80.496 55.4687 82.064 56.4767 83.376C57.5007 84.688 58.7167 85.344 60.1247 85.344C61.5167 85.344 62.6927 84.688 63.6527 83.376C64.6127 82.048 65.0927 80.464 65.0927 78.624C65.0927 76.864 64.6047 75.296 63.6287 73.92C62.6687 72.544 61.5007 71.856 60.1247 71.856C58.7167 71.856 57.5007 72.552 56.4767 73.944C55.4687 75.336 54.9647 76.912 54.9647 78.672ZM74.62 86.328V70.848C74.62 70.416 74.924 70.2 75.532 70.2C75.772 70.2 75.972 70.256 76.132 70.368C76.308 70.48 76.396 70.64 76.396 70.848V71.04C77.532 70.304 78.644 69.936 79.732 69.936C82.132 69.936 84.212 70.752 85.972 72.384C87.748 74 88.636 76.032 88.636 78.48C88.636 80.016 88.292 81.44 87.604 82.752C86.916 84.048 85.876 85.12 84.484 85.968C83.092 86.8 81.476 87.216 79.636 87.216C78.404 87.216 77.324 86.92 76.396 86.328C76.396 86.536 76.308 86.704 76.132 86.832C75.956 86.944 75.748 87 75.508 87C74.916 87 74.62 86.776 74.62 86.328ZM76.396 84.024C77.276 84.968 78.396 85.44 79.756 85.44C81.916 85.44 83.636 84.736 84.916 83.328C86.196 81.92 86.836 80.296 86.836 78.456C86.836 76.664 86.18 75.096 84.868 73.752C83.572 72.392 81.876 71.712 79.78 71.712C78.644 71.712 77.516 72.104 76.396 72.888V84.024Z" fill="black"/>
</svg>
