<svg width="60" height="60" viewBox="0 0 0 0" fill="none" xmlns="http://www.w3.org/2000/svg">
<path d="M22.501 0C14.9073 0 11.8998 6.61875 11.8998 18.75C11.8998 33.4575 26.8923 41.7187 26.7723 41.6025C26.8923 41.7187 21.601 39.51 17.5623 37.7513C11.4085 40.3725 8.65604 47.7412 8.65604 47.7412C8.65604 47.7412 3.51854 59.6475 14.9073 60C26.2998 60 31.6173 43.2713 33.2373 37.6988C43.501 2.46 22.501 0 22.501 0Z" fill="black"/>
<path d="M51.2823 16.9163C45.1023 15.0825 36.9948 33.3525 35.2323 37.365C33.4698 41.3775 25.8236 56.25 31.2386 57.9675C36.496 58.905 40.5348 48.36 41.0785 41.25C52.5685 28.9013 54.091 17.7488 51.2823 16.9163Z" fill="#FFAA06"/>
</svg>
