<svg width="43" height="37" viewBox="0 0 43 37" fill="none" xmlns="http://www.w3.org/2000/svg">
<g clip-path="url(#clip0)">
<path d="M17.349 31.8988C22.7183 29.8853 18.364 24.5927 26.0078 21.4737C32.7787 18.7107 39.8574 17.8708 38.6102 9.4869C37.3708 1.15539 20.0087 -3.37631 9.77013 4.98713C-0.896138 13.7001 5.11042 36.4883 17.349 31.8988Z" fill="#FF7B8B"/>
<path d="M16.6802 29.757C19.3994 28.7425 18.205 21.3766 25.2502 19.2499C31.7533 17.2868 36.9326 14.8617 36.6008 10.313C36.15 4.13028 20.4342 -0.64684 11.5384 6.85968C2.86078 14.1821 7.04144 33.3529 16.6802 29.757Z" fill="#FF4755"/>
<path d="M26.0077 21.4737C18.364 24.5927 22.7183 29.8853 17.3491 31.8988C9.54927 34.8237 4.28127 26.6287 4.24667 18.0441L4.24591 18.0439L4.25977 21.6122L4.26279 21.6116C4.38566 29.4052 9.10222 37.2138 17.2445 36.4032C22.994 35.8307 22.6868 27.3001 26.0078 25.5612C31.9527 22.4483 38.7986 22.0086 38.7465 15.2475L38.7479 15.2473L38.7482 11.6618C38.5272 18.0459 32.1413 18.9708 26.0077 21.4737Z" fill="#994E37"/>
<path d="M25.2518 24.2604C20.9028 26.8262 22.238 34.5299 16.4886 35.1024C11.9576 35.5535 8.48821 33.335 6.28009 29.9358C8.408 34.0521 12.1577 36.9097 17.2444 36.4032C22.9939 35.8307 22.6867 27.3001 26.0077 25.5612C31.9526 22.4484 38.7985 22.0086 38.7464 15.2475L38.7479 15.2473L38.7481 11.6618C38.7542 20.674 30.9915 20.8743 25.2518 24.2604Z" fill="#8C4534"/>
<path d="M22.2594 12.7937C24.1979 12.7937 25.7694 11.9118 25.7694 10.8239C25.7694 9.73609 24.1979 8.8542 22.2594 8.8542C20.3208 8.8542 18.7493 9.73609 18.7493 10.8239C18.7493 11.9118 20.3208 12.7937 22.2594 12.7937Z" fill="#F4E9D3"/>
<path d="M22.2594 11.4929C20.7271 11.4929 19.425 10.9417 18.9461 10.1736C18.8191 10.3772 18.7493 10.5959 18.7493 10.8239C18.7493 11.9118 20.3208 12.7937 22.2594 12.7937C24.1979 12.7937 25.7694 11.9118 25.7694 10.8239C25.7694 10.5959 25.6996 10.3772 25.5726 10.1736C25.0938 10.9417 23.7917 11.4929 22.2594 11.4929Z" fill="#E5D6BE"/>
<path d="M39.2357 9.4178C38.9608 7.56982 37.9168 5.8056 36.2167 4.31577C34.6196 2.91627 32.4728 1.77737 30.0082 1.02241C26.7347 0.0195054 23.0207 -0.257127 19.5505 0.243673C15.6687 0.803804 12.1377 2.30809 9.33913 4.59406C8.20182 5.52318 7.20862 6.63831 6.38708 7.9086C6.21802 8.17013 6.3272 8.50017 6.63122 8.64571C6.935 8.79132 7.31872 8.69724 7.48778 8.43563C8.24708 7.26153 9.16167 6.23348 10.2064 5.38017C12.8221 3.24342 16.1253 1.83684 19.7587 1.3127C23.0209 0.841961 26.5109 1.10147 29.5857 2.04359C31.8715 2.74385 33.8536 3.79221 35.3179 5.07528C36.8238 6.39492 37.7464 7.94415 37.9861 9.55546C38.3984 12.3265 37.9152 14.3412 36.4654 15.8958C35.1785 17.2758 33.253 18.1815 30.7578 19.1167C30.4597 19.2284 30.3071 19.5281 30.4147 19.7923C30.5341 20.0856 30.9292 20.2347 31.2608 20.1104C34.042 19.0681 36.6285 17.8982 38.106 15.7716C37.888 20.0704 34.5056 21.41 30.2654 23.0884C28.7602 23.6842 27.2038 24.3002 25.682 25.0971C24.1364 25.9063 23.345 27.8422 22.5073 29.8917C22.2123 30.6132 21.9074 31.3593 21.5666 32.0615C21.4429 32.3165 21.5686 32.6191 21.852 32.7488C22.1755 32.8969 22.5881 32.7695 22.729 32.4793C23.0838 31.7483 23.3948 30.9874 23.6957 30.2514C24.4567 28.3896 25.1756 26.631 26.3368 26.0231C27.7965 25.2587 29.3193 24.656 30.7918 24.0731C35.2184 22.321 39.3999 20.6663 39.3774 15.2803C39.3782 15.2693 39.3787 15.2581 39.3787 15.2468L39.3789 11.6629C39.4012 10.9759 39.3567 10.2304 39.2357 9.4178Z" fill="black"/>
<path d="M21.3426 33.7469C21.0514 33.5831 20.661 33.6537 20.4709 33.9043C19.5579 35.1074 18.5102 35.7297 17.1742 35.8627C14.6221 36.1168 12.327 35.4886 10.3527 33.9956C8.34468 32.4772 6.784 30.1116 5.85455 27.324C6.66239 28.8185 7.66021 30.0853 8.80021 31.0306C10.0061 32.0304 11.3454 32.6658 12.7808 32.9191C13.2499 33.0018 13.7259 33.0432 14.2081 33.0432C15.3132 33.0431 16.45 32.8261 17.6027 32.3938C20.3495 31.3638 20.8367 29.5116 21.3078 27.7204C21.8482 25.6663 22.4069 23.5423 26.2791 21.9622C27.1728 21.5974 28.0829 21.263 28.9333 20.9558C29.254 20.84 29.4049 20.5224 29.2702 20.2464C29.1356 19.9703 28.7661 19.8405 28.4458 19.9564C27.5816 20.2685 26.6557 20.6089 25.7394 20.9828C21.3135 22.7888 20.6292 25.3905 20.0792 27.481C19.6224 29.2176 19.2616 30.5892 17.0995 31.4001C15.6862 31.9301 14.3186 32.0839 13.0339 31.8572C11.8358 31.6458 10.7055 31.1051 9.67424 30.25C7.46234 28.4161 5.82322 25.2122 5.17696 21.4597C4.5055 17.5606 4.95826 13.6094 6.45176 10.3337C6.57891 10.055 6.41926 9.74054 6.0955 9.63128C5.77165 9.52165 5.40607 9.65924 5.27917 9.93783C4.12237 12.4749 3.55833 15.3903 3.62023 18.3799L3.63282 21.6129C3.63291 21.6325 3.63425 21.6519 3.63677 21.671C3.73646 27.1078 5.98842 32.1383 9.52097 34.8098C11.4296 36.2531 13.6885 37 16.1133 36.9999C16.5109 36.9999 16.9133 36.9799 17.3189 36.9394C19.0315 36.769 20.4075 35.97 21.5255 34.4969C21.7157 34.2464 21.634 33.9106 21.3426 33.7469Z" fill="black"/>
<path d="M22.2612 13.3351C24.5826 13.3351 26.4009 12.2319 26.4009 10.8235C26.4009 9.41512 24.5826 8.31184 22.2612 8.31184C19.9399 8.31184 18.1216 9.41512 18.1216 10.8235C18.1216 12.2319 19.9399 13.3351 22.2612 13.3351ZM22.2612 9.39583C23.7954 9.39583 25.1412 10.063 25.1412 10.8236C25.1412 11.5841 23.7955 12.2513 22.2612 12.2513C20.7271 12.2513 19.3812 11.5841 19.3812 10.8236C19.3812 10.063 20.7271 9.39583 22.2612 9.39583Z" fill="black"/>
</g>
<defs>
<clipPath id="clip0">
<rect width="43" height="37" fill="white"/>
</clipPath>
</defs>
</svg>
