<svg id="Capa_1" enable-background="new 0 0 512 512" height="512" viewBox="0 0 512 512" width="512" xmlns="http://www.w3.org/2000/svg"><g><g><g><g><path d="m388.533 63.983v-39.917c0-9.149-7.417-16.567-16.567-16.567h-49.701v56.483h66.268z" fill="#ece6e3"/><path d="m371.966 7.5h-23c9.149 0 16.567 7.417 16.567 16.567v39.916h23v-39.916c0-9.15-7.417-16.567-16.567-16.567z" fill="#e6ded9"/><path d="m355.399 63.983h-231.941v-40.483c0-8.837 7.163-16 16-16h199.941c8.836 0 16 7.163 16 16z" fill="#f8f6f6"/></g><path d="m272.565 57.2h115.968l42.704 85.408c4.601 9.202 6.996 19.348 6.996 29.635v299.123c0 18.299-14.834 33.133-33.133 33.133h-132.535z" fill="#ece6e3"/><path d="m431.237 142.608-42.704-85.408h-23.001l42.704 85.408c4.601 9.201 6.996 19.348 6.996 29.635v299.123c0 18.299-14.834 33.133-33.133 33.133h23c18.299 0 33.133-14.834 33.133-33.133v-299.123c.001-10.287-2.394-20.434-6.995-29.635z" fill="#e6ded9"/><path d="m305.699 172.243v299.123c0 18.299-14.834 33.133-33.133 33.133h-165.666c-18.299 0-33.133-14.834-33.133-33.133v-299.123c0-10.288 2.395-20.434 6.996-29.635l42.702-85.408h231.935l-42.704 85.408c-4.602 9.201-6.997 19.348-6.997 29.635z" fill="#f8f6f6"/><path d="m165.166 471.367h-50.267c-4.418 0-8-3.582-8-8v-17.133c0-4.418 3.582-8 8-8h50.267c4.418 0 8 3.582 8 8v17.133c0 4.418-3.582 8-8 8z" fill="#9cd2fc"/><path d="m165.166 438.233h-23c4.418 0 8 3.582 8 8v17.133c0 4.418-3.582 8-8 8h23c4.418 0 8-3.582 8-8v-17.133c0-4.418-3.582-8-8-8z" fill="#8cb7e8"/></g><path d="m73.766 189.733h364.466v115.967h-364.466z" fill="#d0eafd"/><path d="m73.766 338.833h364.466v33.133h-364.466z" fill="#d0eafd"/><path d="m305.699 189.733h132.534v115.967h-132.534z" fill="#9cd2fc"/><path d="m415.233 189.733h23v115.967h-23z" fill="#8cb7e8"/><path d="m305.699 338.833h132.534v33.133h-132.534z" fill="#9cd2fc"/><path d="m415.233 338.833h23v33.133h-23z" fill="#8cb7e8"/></g><g><path d="m165.166 430.733h-50.267c-8.547 0-15.5 6.953-15.5 15.5v17.133c0 8.547 6.953 15.5 15.5 15.5h50.267c8.547 0 15.5-6.953 15.5-15.5v-17.133c0-8.547-6.953-15.5-15.5-15.5zm.5 32.634c0 .276-.224.5-.5.5h-50.267c-.276 0-.5-.224-.5-.5v-17.133c0-.276.224-.5.5-.5h50.267c.276 0 .5.224.5.5z"/><path d="m437.945 139.254-41.912-83.824v-31.364c0-13.27-10.796-24.066-24.066-24.066h-32.567-17.134-134.1c-4.142 0-7.5 3.358-7.5 7.5s3.358 7.5 7.5 7.5h134.1 17.134c4.687 0 8.5 3.813 8.5 8.5v26.2h-18.134v-9.066c0-4.142-3.358-7.5-7.5-7.5s-7.5 3.358-7.5 7.5v9.066h-18.133v-9.066c0-4.142-3.358-7.5-7.5-7.5s-7.5 3.358-7.5 7.5v9.066h-18.133v-9.066c0-4.142-3.358-7.5-7.5-7.5s-7.5 3.358-7.5 7.5v9.066h-18.133v-9.066c0-4.142-3.358-7.5-7.5-7.5s-7.5 3.358-7.5 7.5v9.066h-18.133v-9.066c0-4.142-3.358-7.5-7.5-7.5s-7.5 3.358-7.5 7.5v9.066h-18.133v-9.066c0-4.142-3.358-7.5-7.5-7.5s-7.5 3.358-7.5 7.5v9.066h-18.134v-26.2c0-4.687 3.813-8.5 8.5-8.5h18.701c4.142 0 7.5-3.358 7.5-7.5s-3.358-7.5-7.5-7.5h-18.701c-12.958 0-23.5 10.542-23.5 23.5v31.931l-41.911 83.824c-5.095 10.189-7.788 21.596-7.788 32.989v299.123c-.002 22.405 18.226 40.633 40.632 40.633h165.665 132.535c22.405 0 40.633-18.228 40.633-40.633v-299.123c0-11.393-2.693-22.801-7.788-32.99zm-124.746 192.079v-18.133h117.534v18.133zm117.534 15v18.133h-117.534v-18.133zm-349.467-33.133h216.933v18.133h-216.933zm216.933-15h-215.059v-100.967h215.059zm15-100.967h117.534v100.967h-117.534zm117.534-24.989v9.99h-117.534v-9.99c0-9.075 2.146-18.164 6.204-26.282l40.632-81.262h23.863l40.631 81.262c4.059 8.118 6.204 17.206 6.204 26.282zm-58.766-157.244c4.999 0 9.066 4.067 9.066 9.066v25.634h-18.133v-26.2c0-2.997-.57-5.862-1.597-8.5zm-243.866 49.7h215.163l-37.278 74.554c-5.095 10.19-7.788 21.598-7.788 32.99v9.99h-216.932v-9.99c0-2.723.216-5.444.596-8.143h91.303c4.142 0 7.5-3.358 7.5-7.5s-3.358-7.5-7.5-7.5h-87.146c.453-1.06.936-2.107 1.452-3.138zm144.464 432.3h-165.665c-14.134 0-25.633-11.499-25.633-25.633v-91.899h143.163c4.142 0 7.5-3.358 7.5-7.5s-3.358-7.5-7.5-7.5h-143.164v-18.133h216.933v18.133h-43.77c-4.142 0-7.5 3.358-7.5 7.5s3.358 7.5 7.5 7.5h43.77v91.899c0 14.133-11.499 25.633-25.634 25.633zm132.535 0h-101.035c5.705-6.998 9.134-15.921 9.134-25.633v-91.899h117.534v91.899c0 14.133-11.499 25.633-25.633 25.633z"/><path d="m115.182 263.5c4.142 0 7.5-3.358 7.5-7.5v-15.182l3.657 3.809c1.396 1.454 3.318 2.285 5.333 2.306 2.046.054 3.955-.771 5.38-2.196l3.763-3.763v15.026c0 4.142 3.358 7.5 7.5 7.5s7.5-3.358 7.5-7.5v-33.133c0-3.034-1.827-5.768-4.63-6.929-2.8-1.16-6.028-.519-8.173 1.626l-11.154 11.154-11.266-11.735c-2.12-2.209-5.371-2.907-8.209-1.764-2.84 1.143-4.701 3.896-4.701 6.958v33.823c0 4.142 3.358 7.5 7.5 7.5z"/><path d="m173.166 263.5c4.142 0 7.5-3.358 7.5-7.5v-33.133c0-4.142-3.358-7.5-7.5-7.5s-7.5 3.358-7.5 7.5v33.133c0 4.142 3.358 7.5 7.5 7.5z"/><path d="m198.016 263.5h16.566c4.142 0 7.5-3.358 7.5-7.5s-3.358-7.5-7.5-7.5h-9.066v-25.633c0-4.142-3.358-7.5-7.5-7.5s-7.5 3.358-7.5 7.5v33.133c0 4.142 3.358 7.5 7.5 7.5z"/><path d="m231.932 239.485v16.515c0 4.142 3.358 7.5 7.5 7.5s7.5-3.358 7.5-7.5v-2.553l13.19 8.793c1.279.853 2.724 1.261 4.153 1.261 2.423 0 4.802-1.173 6.247-3.341 2.298-3.446 1.367-8.103-2.08-10.4l-15.49-10.327 15.49-10.326c3.446-2.297 4.378-6.954 2.08-10.4-2.297-3.447-6.954-4.378-10.4-2.08l-13.19 8.793v-2.553c0-4.142-3.358-7.5-7.5-7.5s-7.5 3.358-7.5 7.5v16.517.023.05z"/></g></g></svg>