<svg width="35" height="35" viewBox="0 0 35 35" fill="none" xmlns="http://www.w3.org/2000/svg">
<g clip-path="url(#clip0)">
<path d="M34.9588 2.61295C34.8829 1.22265 33.7772 0.117077 32.3869 0.0411976C29.5816 -0.112064 24.0921 0.0370278 18.8429 2.75206C16.167 4.1362 13.3369 6.48291 11.0784 9.19048C11.0505 9.22384 11.0235 9.25741 10.9959 9.29083L5.87027 9.68677C5.02658 9.75199 4.27511 10.1942 3.80848 10.8999L0.311628 16.189C-0.0422681 16.7243 -0.0985279 17.3942 0.161033 17.9809C0.420662 18.5677 0.954138 18.9766 1.58817 19.0748L5.9065 19.7437C5.89126 19.8276 5.87595 19.9115 5.86193 19.9954C5.71817 20.8554 6.00309 21.7396 6.62421 22.3606L12.6393 28.3757C13.1542 28.8907 13.8501 29.1746 14.5631 29.1746C14.7099 29.1746 14.8575 29.1625 15.0045 29.1379C15.0885 29.1239 15.1723 29.1086 15.2563 29.0934L15.9251 33.4118C16.0233 34.0458 16.4323 34.5794 17.0189 34.8389C17.263 34.9469 17.5214 35.0002 17.7785 35.0002C18.1397 35.0002 18.4983 34.895 18.8108 34.6884L24.0999 31.1915C24.8058 30.7248 25.2479 29.9733 25.313 29.1297L25.7089 24.0042C25.7423 23.9765 25.776 23.9495 25.8093 23.9216C28.517 21.6631 30.8638 18.833 32.2478 16.1571C34.963 10.9077 35.1118 5.41807 34.9588 2.61295ZM22.9689 29.4807L17.9096 32.8257L17.2577 28.6172C19.396 27.9885 21.5112 26.9816 23.5264 25.6326L23.2685 28.9716C23.2524 29.1799 23.1432 29.3655 22.9689 29.4807ZM14.0894 26.9256L8.07425 20.9105C7.92078 20.757 7.84982 20.5413 7.88462 20.3335C8.06345 19.2642 8.34133 18.2463 8.68531 17.2873L17.7107 26.3127C16.5589 26.7252 15.5273 26.9713 14.6663 27.1153C14.4583 27.1499 14.2429 27.0791 14.0894 26.9256ZM6.02825 11.7315L9.3672 11.4735C8.01819 13.4887 7.01126 15.604 6.38256 17.7422L2.17408 17.0904L5.51918 12.031C5.63443 11.8567 5.82003 11.7475 6.02825 11.7315ZM24.4959 22.3467C22.8393 23.7285 21.2313 24.7279 19.7491 25.4511L9.54848 15.2504C10.4958 13.3156 11.652 11.7044 12.6532 10.5041C14.7433 7.99843 17.3428 5.83684 19.7852 4.57356C24.6027 2.08166 29.6785 1.94747 32.2753 2.08883C32.619 2.10756 32.8924 2.38093 32.9111 2.72471C33.0527 5.32155 32.9182 10.3972 30.4263 15.2149C29.1631 17.6572 27.0015 20.2566 24.4959 22.3467Z" fill="white"/>
<path d="M23.975 16.1494C25.2877 16.1493 26.6008 15.6496 27.6002 14.6502C28.5686 13.6819 29.1018 12.3944 29.1018 11.0251C29.1018 9.65568 28.5685 8.3682 27.6002 7.39989C25.6012 5.40086 22.3487 5.40099 20.3499 7.39989C19.3815 8.3682 18.8482 9.65568 18.8482 11.0251C18.8482 12.3944 19.3815 13.6819 20.3499 14.6502C21.3494 15.6498 22.6619 16.1495 23.975 16.1494ZM21.7998 8.84993C22.3995 8.25021 23.1872 7.95039 23.9749 7.95039C24.7627 7.95039 25.5504 8.25021 26.15 8.84993C26.731 9.43091 27.0509 10.2034 27.0509 11.025C27.0509 11.8466 26.731 12.6191 26.15 13.2001C24.9507 14.3995 22.9991 14.3994 21.7998 13.2001C21.2188 12.6191 20.8988 11.8467 20.8988 11.0251C20.8988 10.2034 21.2188 9.43091 21.7998 8.84993Z" fill="white"/>
<path d="M1.04599 28.8434C1.30842 28.8434 1.57085 28.7433 1.77101 28.543L5.11877 25.1953C5.51922 24.7948 5.51922 24.1456 5.11877 23.7452C4.71839 23.3447 4.06911 23.3447 3.66866 23.7452L0.320967 27.0929C-0.0794824 27.4934 -0.0794824 28.1426 0.320967 28.543C0.521123 28.7433 0.783555 28.8434 1.04599 28.8434Z" fill="white"/>
<path d="M8.18681 26.8132C7.78643 26.4128 7.13715 26.4128 6.73671 26.8132L0.300398 33.2496C-0.100051 33.65 -0.100051 34.2993 0.300398 34.6997C0.500623 34.8999 0.762986 35 1.02542 35C1.28785 35 1.55028 34.8999 1.75044 34.6996L8.18674 28.2633C8.58726 27.8629 8.58726 27.2137 8.18681 26.8132Z" fill="white"/>
<path d="M9.80471 29.8812L6.45695 33.229C6.0565 33.6295 6.0565 34.2787 6.45695 34.6791C6.65718 34.8793 6.91961 34.9795 7.18197 34.9795C7.44433 34.9795 7.70683 34.8794 7.90699 34.6791L11.2548 31.3313C11.6552 30.9309 11.6552 30.2817 11.2548 29.8812C10.8544 29.4808 10.2051 29.4808 9.80471 29.8812Z" fill="white"/>
</g>
<defs>
<clipPath id="clip0">
<rect width="35" height="35" fill="white"/>
</clipPath>
</defs>
</svg>
