<?xml version="1.0" encoding="iso-8859-1"?>
<!-- Generator: Adobe Illustrator 19.0.0, SVG Export Plug-In . SVG Version: 6.00 Build 0)  -->
<svg version="1.1" id="Capa_1" xmlns="http://www.w3.org/2000/svg" xmlns:xlink="http://www.w3.org/1999/xlink" x="0px" y="0px"
   viewBox="0 0 512 512" style="enable-background:new 0 0 512 512;" xml:space="preserve">
<path style="fill:#FFD662;" d="M512,256c0,29.748-5.068,58.305-14.399,84.867v0.01c-3.145,8.944-6.781,17.669-10.857,26.133
  C445.398,452.796,357.616,512,256,512c-80.363,0-152.074-37.031-199.001-94.95C28.442,381.827,9.07,338.86,2.487,291.798
  c-0.01-0.094-0.031-0.199-0.042-0.293C0.836,279.907,0,268.048,0,256C0,114.615,114.615,0,256,0S512,114.615,512,256z"/>
<g>
  <path style="fill:#FCE39D;" d="M510.558,228.655c-0.554,0.042-1.118,0.052-1.682,0.052H373.039c-8.37,0-15.945-3.396-21.431-8.871
    c-5.475-5.486-8.871-13.061-8.871-21.431c0-16.739,13.563-30.302,30.302-30.302h18.808c16.729,0,30.302-13.563,30.302-30.302
    s13.563-30.302,30.302-30.302h12.1C489.441,142.388,505.793,183.798,510.558,228.655z"/>
  <path style="fill:#FCE39D;" d="M490.736,358.296c-1.275,2.936-2.612,5.841-3.992,8.714
    c-22.883,47.491-60.008,86.831-105.827,112.494h-88.346c-8.37,0-15.945-3.396-21.431-8.871c-5.486-5.486-8.871-13.061-8.871-21.431
    c0-16.729,13.563-30.302,30.302-30.302h18.808c16.729,0,30.302-13.563,30.302-30.302c0-16.729,13.563-30.302,30.302-30.302H490.736
    z"/>
  <path style="fill:#FCE39D;" d="M185.657,286.323c0,16.729-13.573,30.302-30.302,30.302H7.231
    c-2.006-8.223-3.605-16.603-4.786-25.119C0.836,279.907,0,268.048,0,256c0-43.844,11.024-85.117,30.448-121.187h83.675
    c8.37,0,15.945,3.396,21.431,8.871c5.486,5.486,8.871,13.061,8.871,21.431c0,16.729-13.563,30.302-30.302,30.302H95.316
    c-16.729,0-30.302,13.563-30.302,30.302c0,16.729,13.573,30.302,30.302,30.302h60.04c8.359,0,15.945,3.396,21.42,8.871
    C182.262,270.378,185.657,277.953,185.657,286.323z"/>
</g>
<rect x="266.344" y="141.939" style="fill:#34A375;" width="15.211" height="110.279"/>
<path style="fill:#3FBD77;" d="M258.76,165.843h14.284v-14.284c0-33.36-16.12-62.932-40.994-81.39
  c-3.141-2.329-6.426-4.484-9.838-6.455c-14.853-8.552-32.085-13.443-50.465-13.443h-14.273v14.274c0,10.544,1.614,20.7,4.6,30.268
  c1.083,3.46,2.348,6.842,3.778,10.128c5.247,12.06,12.776,22.904,22.034,31.978c3.364,3.305,6.967,6.369,10.775,9.171
  C215.474,158.508,236.251,165.843,258.76,165.843z"/>
<path style="fill:#34A375;" d="M265.688,165.843h7.354v-7.354l-45.131-45.131l4.137-43.189c-3.141-2.329-6.426-4.484-9.838-6.455
  l-3.837,40.106l-53.538-53.549h-7.364v7.354l34.83,34.83l-30.229,2.358c1.083,3.46,2.348,6.842,3.778,10.128l36.124-2.812
  l29.562,29.562l-43.653,5.229c3.364,3.305,6.967,6.369,10.775,9.171l42.242-5.035L265.688,165.843z"/>
<path style="fill:#3FBD77;" d="M285.079,151.59h-18.735v-18.735c0-43.756,21.142-82.544,53.77-106.754
  c4.12-3.054,8.429-5.882,12.903-8.467C352.5,6.416,375.102,0.002,399.211,0.002h18.721v18.722c0,13.829-2.117,27.152-6.033,39.7
  c-1.42,4.538-3.08,8.975-4.956,13.284c-6.883,15.819-16.757,30.041-28.901,41.944c-4.412,4.335-9.139,8.353-14.133,12.029
  C341.854,141.968,314.601,151.59,285.079,151.59z"/>
<path style="fill:#C69A6A;" d="M455.116,315.016c0,0-28.4,20.637-61.367,43.781c-43.039,30.208-93.853,64.679-99.422,63.08
  l-190.13-110.268c-12.006-3.448,117.593-75.118,117.593-75.118s20.564-4.378,52.025-2.779
  C320.731,236.095,391.858,251.758,455.116,315.016z"/>
<path style="fill:#B58657;" d="M416.507,338.484c0,0-8.85,7.962-22.758,20.313c-43.039,30.208-93.853,64.679-99.422,63.08
  l-190.13-110.268c-12.006-3.448,117.593-75.118,117.593-75.118s20.564-4.378,52.025-2.779
  C318.819,249.48,369.497,280.294,416.507,338.484z"/>
<path style="fill:#E5B691;" d="M497.601,340.867v0.01c-3.145,8.944-6.781,17.669-10.857,26.133
  c-1.912,1.609-4.054,3.009-6.405,4.148l-158.824,77.03c-15.966,7.743-34.189,9.477-51.325,4.88L98.022,406.904
  c-8.861-2.372-18.275-1.39-26.457,2.759l-14.566,7.387C28.442,381.827,9.07,338.86,2.487,291.798
  c-0.01-0.094-0.031-0.199-0.042-0.293l77.678-58.326c23.239-17.46,53.321-23.834,81.304-15.956c1.128,0.324,2.257,0.658,3.385,1.024
  l152.398,48.797c7.973,2.55,13.814,8.599,16.415,15.882c1.003,2.759,1.526,5.695,1.526,8.694c0,2.978-0.522,6.008-1.62,8.965
  c-4.671,12.591-18.223,19.487-31.148,15.872l-96.475-27.021c-2.163-0.606-4.347-0.899-6.478-0.899
  c-10.982,0-20.94,7.628-23.353,18.892c-0.021,0.073-0.042,0.146-0.052,0.219c-2.508,12.236,4.817,24.346,16.823,27.794
  l110.613,31.786c9.832,2.821,20.334,2.236,29.78-1.682l121.877-50.531c3.845-1.599,7.847-2.351,11.776-2.351
  c11.421,0,22.34,6.384,27.658,17.23c0.721,1.463,1.306,2.957,1.776,4.462C496.995,336.509,497.413,338.683,497.601,340.867z"/>
<path style="fill:#F7CEA6;" d="M496.327,334.357c-1.442,9.728-7.513,18.599-17.032,23.218l-158.824,77.03
  c-15.966,7.743-34.189,9.477-51.325,4.88L96.977,393.32c-8.861-2.372-18.275-1.39-26.457,2.759l-21.337,10.836
  C24.858,373.635,8.37,334.252,2.445,291.506l77.678-58.326c23.239-17.46,53.321-23.834,81.304-15.956
  c1.128,0.324,2.257,0.658,3.385,1.024l152.398,48.797c7.973,2.55,13.814,8.599,16.415,15.882c-0.261,1.369-0.637,2.727-1.139,4.075
  c-4.671,12.591-18.223,19.487-31.148,15.872l-96.475-27.021c-2.163-0.606-4.347-0.899-6.478-0.899
  c-11.055,0-21.065,7.732-23.406,19.111c-0.951,4.629-0.491,9.237,1.097,13.364c-0.021,0.073-0.042,0.146-0.052,0.219
  c-2.508,12.236,4.817,24.346,16.823,27.794l110.613,31.786c9.832,2.821,20.334,2.236,29.78-1.682l121.877-50.531
  c3.845-1.599,7.847-2.351,11.776-2.351c11.421,0,22.34,6.384,27.658,17.23C495.271,331.358,495.856,332.852,496.327,334.357z"/>
<path style="fill:#34A375;" d="M275.991,151.59h-9.646v-9.646l59.196-59.196l-5.425-56.647c4.12-3.054,8.429-5.882,12.903-8.467
  l5.032,52.604l70.223-70.236h9.659v9.646L372.25,55.332l39.65,3.093c-1.42,4.538-3.08,8.975-4.956,13.284l-47.382-3.688
  l-38.775,38.775l57.256,6.858c-4.412,4.335-9.139,8.353-14.133,12.029l-55.406-6.604L275.991,151.59z"/>
<g>
</g>
<g>
</g>
<g>
</g>
<g>
</g>
<g>
</g>
<g>
</g>
<g>
</g>
<g>
</g>
<g>
</g>
<g>
</g>
<g>
</g>
<g>
</g>
<g>
</g>
<g>
</g>
<g>
</g>
</svg>
