<svg height="512" viewBox="0 0 64 64" width="512" xmlns="http://www.w3.org/2000/svg"><g id="Flat"><g id="Color_copy" data-name="Color copy"><g><path d="m48.825 41.375a1.982 1.982 0 0 0 2.675-1.875 3 3 0 0 0 0-6 2.97 2.97 0 0 0 -1.47.4 3 3 0 0 0 -.571-.655 1.995 1.995 0 1 0 -2.342-3.185 2.98 2.98 0 0 0 -5.5.66 2.989 2.989 0 0 0 -3.075 5.035 1.994 1.994 0 1 0 2.7 2.7 2.979 2.979 0 0 0 2.258 1.045 2.989 2.989 0 0 0 5.325 1.875z" fill="#5ba006"/><g><path d="m41.828 24.172a6 6 0 0 1 6 6 3 3 0 0 1 -3 3h-6a3 3 0 0 1 -3-3 6 6 0 0 1 6-6z" fill="#f9e109" transform="matrix(.707 .707 -.707 .707 32.525 -21.179)"/><path d="m32.99 37.51a3.531 3.531 0 0 1 .329-5.284l3.206-2.494 4.243 4.243-2.494 3.206a3.531 3.531 0 0 1 -5.284.329z" fill="#fcbc04"/><path d="m46.01 29.975a3 3 0 0 1 -4.242 0l-4.243-4.243a2.937 2.937 0 0 1 -.485-.663 5.843 5.843 0 0 0 -.515.421 3 3 0 0 0 0 4.242l4.243 4.243a3 3 0 0 0 4.242 0 5.958 5.958 0 0 0 1.7-4.855 5.981 5.981 0 0 1 -.7.855z" fill="#fcbc04"/><path d="m36.525 29.732-1.112.866c.039.044.07.092.112.134l3.6 3.6a3.519 3.519 0 0 1 -5.136.177 3.5 3.5 0 0 1 -.989-1.97 3.516 3.516 0 0 0 -.006 4.971 3.531 3.531 0 0 0 5.284-.329l2.494-3.206z" fill="#e59730"/></g><g><path d="m19 31a4 4 0 0 1 3.209-3.92 2.962 2.962 0 0 1 -.209-1.08 3 3 0 0 1 6 0c0 .05-.012.1-.015.146a3.956 3.956 0 0 1 1.015-.146 4 4 0 0 1 4 4 3.952 3.952 0 0 1 -.5 1.9 3.96 3.96 0 0 1 -.553 6.574 3.035 3.035 0 0 1 .053.526 3 3 0 0 1 -3 3 2.97 2.97 0 0 1 -1.47-.4 2.994 2.994 0 0 1 -5.306-2.729 3.936 3.936 0 0 1 -.956-4.28 3.988 3.988 0 0 1 -2.268-3.591z" fill="#a1d51c"/><path d="m33 34a2.97 2.97 0 0 1 -1.47-.4 2.994 2.994 0 0 1 -5.306-2.729 3.936 3.936 0 0 1 -.956-4.28 4 4 0 0 1 -2.2-2.872 2.946 2.946 0 0 0 -.865 3.361 3.989 3.989 0 0 0 -.94 7.511 3.936 3.936 0 0 0 .956 4.28 2.995 2.995 0 0 0 5.311 2.729 2.97 2.97 0 0 0 1.47.4 3 3 0 0 0 3-3 3.035 3.035 0 0 0 -.053-.526 3.984 3.984 0 0 0 2.053-3.474 3.843 3.843 0 0 0 -.185-1.126 2.96 2.96 0 0 1 -.815.126z" fill="#7ab92d"/><g fill="#5ba006"><path d="m28.246 38.769h-.04a1 1 0 0 1 -.96-1.039 14.8 14.8 0 0 0 -2.1-8.214 1 1 0 1 1 1.714-1.03 16.785 16.785 0 0 1 2.387 9.323 1 1 0 0 1 -1.001.96z"/><path d="m27.7 34a.984.984 0 0 1 -.391-.08l-4.7-2a1 1 0 1 1 .784-1.84l3.786 1.61.9-2.087a1 1 0 0 1 1.836.794l-1.3 3a1 1 0 0 1 -.915.603z"/><path d="m28.257 38.5a.98.98 0 0 1 -.418-.092l-3.257-1.5a1 1 0 1 1 .836-1.816l2.5 1.149 1.265-1.813a1 1 0 1 1 1.64 1.144l-1.743 2.5a1 1 0 0 1 -.823.428z"/></g></g><g><path d="m4 24a3 3 0 0 1 5.473-1.7 3.993 3.993 0 0 1 5.438 2.864 3.889 3.889 0 0 1 4.563 1.884 3.035 3.035 0 0 1 .526-.048 3 3 0 0 1 3 3 2.966 2.966 0 0 1 -.644 1.836 3.964 3.964 0 0 1 -.973 5.36 2.969 2.969 0 0 1 .617 1.804 2.992 2.992 0 0 1 -5.872.819 3.877 3.877 0 0 1 -4-1.043 2.993 2.993 0 0 1 -3.9-3.905 3.884 3.884 0 0 1 -1.078-3.886c-.05.003-.1.015-.15.015a2.988 2.988 0 0 1 -2.221-5 2.978 2.978 0 0 1 -.779-2z" fill="#c4f236"/><path d="m21.738 36.9a2.941 2.941 0 0 1 -3.61-2.079 3.877 3.877 0 0 1 -4-1.043 2.993 2.993 0 0 1 -3.9-3.905 3.884 3.884 0 0 1 -1.078-3.886c-.05.001-.1.013-.15.013a2.986 2.986 0 0 1 -2.24-4.976 2.976 2.976 0 0 0 -1.981 4.976 2.988 2.988 0 0 0 2.221 5c.05 0 .1-.012.146-.015a3.884 3.884 0 0 0 1.078 3.886 2.993 2.993 0 0 0 3.9 3.905 3.877 3.877 0 0 0 4 1.043 2.991 2.991 0 1 0 5.259-2.619 4.406 4.406 0 0 0 .355-.3z" fill="#a1d51c"/><g fill="#7ab92d"><path d="m18.432 38.769a1 1 0 0 1 -.942-.664 20.007 20.007 0 0 0 -9.937-11.205 1 1 0 1 1 .894-1.79 22 22 0 0 1 10.926 12.322 1 1 0 0 1 -.941 1.337z"/><path d="m15 33h-4a1 1 0 0 1 0-2h3.279l.773-2.316a1 1 0 0 1 1.9.632l-1 3a1 1 0 0 1 -.952.684z"/><path d="m9 30a1 1 0 0 1 -.448-1.895l1.448-.723v-2.382a1 1 0 0 1 2 0v3a1 1 0 0 1 -.553.895l-2 1a1 1 0 0 1 -.447.105z"/><path d="m18 37.536a1.017 1.017 0 0 1 -.134-.009l-4-.536a1 1 0 0 1 .266-1.982l3.053.409.83-4.6a1 1 0 1 1 1.968.356l-1 5.536a1 1 0 0 1 -.983.826z"/></g></g><g><path d="m7 38h46a0 0 0 0 1 0 0v2a16 16 0 0 1 -16 16h-14a16 16 0 0 1 -16-16v-2a0 0 0 0 1 0 0z" fill="#84d2f4"/><path d="m51.218 46.31a9.98 9.98 0 0 0 -15.7-.93 2.993 2.993 0 0 0 -2.518-1.38c-.061 0-.118.014-.178.018a2.987 2.987 0 0 0 -5.738.3 2 2 0 1 0 -1.084 3.682c.065 0 .126-.013.19-.019a2.791 2.791 0 0 0 -.018 1.977 15.99 15.99 0 0 1 -14.649-11.958h-4.523v2a16 16 0 0 0 16 16h14a15.99 15.99 0 0 0 14.966-10.383c-.247.233-.486.475-.748.693z" fill="#57b7eb"/></g><path d="m38 47a3 3 0 0 0 -3-3c-.061 0-.118.014-.178.018a2.987 2.987 0 0 0 -5.738.3 2 2 0 1 0 -1.084 3.682c.065 0 .126-.013.19-.019a2.886 2.886 0 0 0 .03 2.135 2.992 2.992 0 1 0 2.78 5.1 2.973 2.973 0 0 0 4.86-1.361 2.973 2.973 0 0 0 1.361-4.855 2.978 2.978 0 0 0 .779-2z" fill="#c4f236"/><path d="m36.639 44.491a2.981 2.981 0 0 1 -.779.369 2.973 2.973 0 0 1 -4.86 1.361 2.98 2.98 0 0 1 -4.782-1.111 1.974 1.974 0 0 0 -.218.89 2 2 0 0 0 2 2c.065 0 .126-.013.19-.019a2.886 2.886 0 0 0 .03 2.135 2.992 2.992 0 1 0 2.78 5.1 2.973 2.973 0 0 0 4.86-1.361 2.973 2.973 0 0 0 1.361-4.855 2.978 2.978 0 0 0 -.582-4.509z" fill="#a1d51c"/><g><circle cx="46.645" cy="51" fill="#f89c8d" r="10"/><path d="m51.645 53a10 10 0 0 1 -9.4-6.6l2.4-2.4 1.383 6.59 3.617-4.59 2.022 5.022 3.84-4.645a10.009 10.009 0 1 0 1.1 5.295 9.946 9.946 0 0 1 -4.962 1.328z" fill="#f8664f"/><path d="m58.061 34a10.523 10.523 0 0 0 -8.561 4.407l-1.855 2.593 3 1a10.992 10.992 0 0 1 9.58-3.07l.42.07.3-1.486a2.938 2.938 0 0 0 -2.884-3.514z" fill="#a1d51c"/><path d="m56.645 37a19.839 19.839 0 0 1 -5.182-.657 10.5 10.5 0 0 0 -1.963 2.064l-1.855 2.593 3 1a10.992 10.992 0 0 1 9.58-3.07l.42.07.3-1.486a2.893 2.893 0 0 0 .015-.959 20.565 20.565 0 0 1 -4.315.445z" fill="#7ab92d"/><path d="m42.622 38.528-.692.865a3.532 3.532 0 0 0 -.521 3.517l1.236 3.09 3-3 1.383 6.59 3.617-4.59 2.022 5.022 3.908-4.722a3.529 3.529 0 0 0 .74-2.942 3.531 3.531 0 0 0 -4.043-2.791l-1.25.208a3.526 3.526 0 0 1 -2.539-.545l-2.144-1.43a3.533 3.533 0 0 0 -4.717.728z" fill="#a1d51c"/><path d="m54.645 44c-4.971 0-9-2.91-9-6.5 0-.092.014-.182.019-.274a3.519 3.519 0 0 0 -3.042 1.3l-.692.865a3.532 3.532 0 0 0 -.521 3.517l1.236 3.092 3-3 1.383 6.59 3.617-4.59 2.022 5.022 3.908-4.722a3.524 3.524 0 0 0 .729-1.584 12.256 12.256 0 0 1 -2.659.284z" fill="#7ab92d"/></g><g><path d="m12.5 54.229 1 1.732-6.536 4.7a1.81 1.81 0 0 1 -2.624-.561 1.81 1.81 0 0 1 .823-2.555z" fill="#a1d51c"/><path d="m12.5 54.229-7.337 3.311a1.751 1.751 0 0 0 -.4.256 1.709 1.709 0 0 0 .227.005l3.68-.368-1.706 1.226a1.8 1.8 0 0 1 -2.555-.47 1.8 1.8 0 0 0 2.555 2.47l6.536-4.7z" fill="#7ab92d"/><path d="m12.5 55.771 1-1.732-6.536-4.7a1.81 1.81 0 0 0 -2.624.564 1.81 1.81 0 0 0 .823 2.555z" fill="#c4f236"/><path d="m10.062 51.568a2.2 2.2 0 0 1 -2.385.381l-3.516-1.587a1.805 1.805 0 0 0 1 2.1l7.339 3.309 1-1.732z" fill="#a1d51c"/><path d="m13 54v2l-8.01.8a1.81 1.81 0 0 1 -1.99-1.8 1.81 1.81 0 0 1 1.99-1.8z" fill="#c4f236"/><path d="m13 54-3.6-.36a2.992 2.992 0 0 1 -1.846.905l-2.564.255a1.809 1.809 0 0 1 -1.684-.8 1.8 1.8 0 0 0 1.684 2.8l8.01-.8z" fill="#a1d51c"/><path d="m10 55a5.556 5.556 0 0 0 5.982 5.54l16.03-1.233a4.32 4.32 0 0 0 3.988-4.307 4.32 4.32 0 0 0 -3.988-4.307l-16.03-1.233a5.556 5.556 0 0 0 -5.982 5.54z" fill="#f89c8d"/><path d="m34.155 56.767-16.007-1.492a5.558 5.558 0 0 1 -5.035-5.264 5.556 5.556 0 0 0 2.869 10.529l16.03-1.233a4.319 4.319 0 0 0 3.667-2.678 4.3 4.3 0 0 1 -1.524.138z" fill="#f8664f"/><g fill="#cc5144"><path d="m16 49.46 2 .15v3.39a1 1 0 0 1 -2 0z"/><path d="m23 56v4l-2 .15v-4.15a1 1 0 0 1 2 0z"/><path d="m24 50.08 2 .15v3.77a1 1 0 0 1 -2 0z"/><path d="m28 50.38 2 .16v2.46a1 1 0 0 1 -2 0z"/><path d="m33 56v3.11a4.046 4.046 0 0 1 -.99.2l-1.01.08v-3.39a1 1 0 0 1 2 0z"/><path d="m26 50.23v3.77a1 1 0 0 1 -2 0v-3.92z"/><path d="m18 49.61v3.39a1 1 0 0 1 -2 0v-3.54z"/><path d="m33 56v3.11a4.046 4.046 0 0 1 -.99.2l-1.01.08v-3.39a1 1 0 0 1 2 0z"/><path d="m23 56v4l-2 .15v-4.15a1 1 0 0 1 2 0z"/><path d="m30 50.54v2.46a1 1 0 0 1 -2 0v-2.62z"/></g></g></g></g></g></svg>