<?xml version="1.0" encoding="iso-8859-1"?>
<!-- Generator: Adobe Illustrator 19.0.0, SVG Export Plug-In . SVG Version: 6.00 Build 0)  -->
<svg version="1.1" id="Capa_1" xmlns="http://www.w3.org/2000/svg" xmlns:xlink="http://www.w3.org/1999/xlink" x="0px" y="0px"
   viewBox="0 0 511.999 511.999" style="enable-background:new 0 0 511.999 511.999;" xml:space="preserve">
<circle style="fill:#CAF5FC;" cx="255.999" cy="255.999" r="255.999"/>
<g>
  <path style="fill:#FCF8F2;" d="M511.993,253.837h-86.799c-16.739,0-30.302-13.573-30.302-30.302v-0.01
    c0-16.729,13.563-30.292,30.302-30.292h18.808c16.739,0,30.302-13.573,30.302-30.302v-0.01c0-8.986,3.918-17.063,10.135-22.601
    C501.763,174.466,511.658,213.012,511.993,253.837z"/>
  <path style="fill:#FCF8F2;" d="M163.2,68.89L163.2,68.89c0,16.735-13.567,30.302-30.302,30.302H114.09
    c-16.735,0-30.302,13.567-30.302,30.302l0,0c0,16.735,13.567,30.302,30.302,30.302h135.836c16.735,0,30.302-13.567,30.302-30.302
    l0,0c0-16.735,13.567-30.302,30.302-30.302h18.808c16.735,0,30.302-13.567,30.302-30.302l0,0c0-16.735-13.567-30.302-30.302-30.302
    H193.502C176.767,38.588,163.2,52.154,163.2,68.89z"/>
  <path style="fill:#FCF8F2;" d="M226.423,190.798c0,16.729-13.563,30.302-30.302,30.302h-18.808c-8.37,0-15.945,3.396-21.431,8.871
    c-5.475,5.486-8.871,13.061-8.871,21.431c0,16.729-13.563,30.302-30.302,30.302H1.279c-0.846-8.453-1.275-17.032-1.275-25.704
    c0-11.88,0.815-23.573,2.382-35.025c15.475-1.358,27.596-14.357,27.596-30.177c0-16.739,13.563-30.302,30.302-30.302h135.836
    c8.37,0,15.945,3.396,21.431,8.871C223.027,174.853,226.423,182.428,226.423,190.798z"/>
  <path style="fill:#FCF8F2;" d="M239.803,373.307L239.803,373.307c0-16.735,13.567-30.302,30.302-30.302h18.808
    c16.735,0,30.302-13.567,30.302-30.302l0,0c0-16.735-13.567-30.302-30.302-30.302H153.076c-16.735,0-30.302,13.567-30.302,30.302
    l0,0c0,16.735-13.567,30.302-30.302,30.302H73.664c-16.735,0-30.302,13.567-30.302,30.302l0,0
    c0,16.735,13.567,30.302,30.302,30.302h18.808c16.735,0,30.302,13.567,30.302,30.302l0,0c0,16.735,13.567,30.302,30.302,30.302
    h177.061c16.735,0,30.302-13.567,30.302-30.302l0,0c0-16.735-13.567-30.302-30.302-30.302h-60.032
    C253.369,403.609,239.803,390.042,239.803,373.307z"/>
</g>
<path style="fill:#25B6C9;" d="M244.468,470.652c0,0.899-0.01,1.797-0.031,2.696c-0.313,14.9-4.075,27.481-10.24,37.731
  c-39.299-3.312-76.068-15.506-108.293-34.565c-10.041-5.925-19.634-12.528-28.724-19.728c4.138-36.948,24.566-68.963,53.948-88.691
  c6.071-4.075,12.539-7.638,19.31-10.595C214.009,376.56,244.468,420.048,244.468,470.652z"/>
<path style="fill:#3FCDE0;" d="M244.468,470.652c0,0.899-0.01,1.797-0.031,2.696c-0.313,14.9-4.075,27.481-10.24,37.731
  c-39.299-3.312-76.068-15.506-108.293-34.565c-2.675-7.544-4.253-16.008-4.451-25.401c-0.021-0.888-0.021-1.797-0.021-2.706
  c0-30.668,11.18-58.723,29.696-80.311c6.071-4.075,12.539-7.638,19.31-10.595C214.009,376.56,244.468,420.048,244.468,470.652z"/>
<g>
  <circle style="fill:#74D9EF;" cx="204.162" cy="441.573" r="18.067"/>
  <circle style="fill:#74D9EF;" cx="189.837" cy="407.353" r="11.217"/>
</g>
<path style="fill:#25B6C9;" d="M501.916,169.18c0,0.902-0.006,1.803-0.025,2.705c-0.352,16.295-4.824,29.816-12.02,40.559
  c-34.999,52.221-134.275,38.699-135.974-40.559c-0.025-0.902-0.031-1.803-0.031-2.705c0-42.732,21.718-80.388,54.716-102.55
  c6.072-4.077,12.534-7.635,19.31-10.599C471.463,75.092,501.916,118.579,501.916,169.18z"/>
<path style="fill:#3FCDE0;" d="M501.916,169.18c0,0.902-0.006,1.803-0.025,2.705c-0.352,16.295-4.824,29.816-12.02,40.559
  c-43.387,22.732-109.574,1.797-110.964-62.795c-0.019-0.895-0.025-1.797-0.025-2.705c0-30.669,11.187-58.725,29.699-80.314
  c6.072-4.077,12.534-7.635,19.31-10.599C471.463,75.092,501.916,118.579,501.916,169.18z"/>
<g>
  <circle style="fill:#74D9EF;" cx="461.614" cy="140.11" r="18.067"/>
  <circle style="fill:#74D9EF;" cx="447.289" cy="105.89" r="11.217"/>
</g>
<path style="fill:#25B6C9;" d="M287.183,191.404c0,1.526-0.01,3.051-0.042,4.577c-0.596,27.564-8.161,50.437-20.334,68.608
  c-59.204,88.335-227.139,65.463-230.013-68.608c-0.042-1.526-0.052-3.051-0.052-4.577c0-72.286,36.739-135.983,92.557-173.474
  C139.571,11.034,150.501,5.016,161.963,0C235.67,32.245,287.183,105.806,287.183,191.404z"/>
<path style="fill:#3FCDE0;" d="M287.183,191.404c0,1.526-0.01,3.051-0.042,4.577c-0.596,27.564-8.161,50.437-20.334,68.608
  c-73.393,38.452-185.354,3.041-187.705-106.224c-0.031-1.515-0.042-3.041-0.042-4.577c0-51.879,18.923-99.338,50.239-135.857
  C139.571,11.034,150.501,5.016,161.963,0C235.67,32.245,287.183,105.806,287.183,191.404z"/>
<g>
  <circle style="fill:#74D9EF;" cx="219.01" cy="142.231" r="30.563"/>
  <circle style="fill:#74D9EF;" cx="194.779" cy="84.334" r="18.975"/>
</g>
<path style="fill:#25B6C9;" d="M477.187,384.971c-19.78,33.855-47.114,62.767-79.694,84.407
  c-14.054,9.341-29.079,17.324-44.889,23.761c-0.01,0.01-0.01,0.01-0.01,0c-31.504-11.327-56.759-39.027-57.71-83.121
  c-0.031-1.118-0.031-2.246-0.031-3.365c0-53.07,26.969-99.829,67.95-127.352c7.534-5.057,15.559-9.477,23.98-13.166
  C434.555,287.043,469.633,331.577,477.187,384.971z"/>
<path style="fill:#3FCDE0;" d="M477.187,384.971c-19.78,33.855-47.114,62.767-79.694,84.407
  c-37.627-7.596-70.457-36.582-71.544-86.977c-0.021-1.118-0.031-2.236-0.031-3.365c0-38.086,13.897-72.923,36.885-99.735
  c7.534-5.057,15.559-9.477,23.98-13.166C434.555,287.043,469.633,331.577,477.187,384.971z"/>
<g>
  <circle style="fill:#74D9EF;" cx="428.658" cy="370.551" r="22.436"/>
  <circle style="fill:#74D9EF;" cx="410.874" cy="328.055" r="13.929"/>
</g>
<g>
</g>
<g>
</g>
<g>
</g>
<g>
</g>
<g>
</g>
<g>
</g>
<g>
</g>
<g>
</g>
<g>
</g>
<g>
</g>
<g>
</g>
<g>
</g>
<g>
</g>
<g>
</g>
<g>
</g>
</svg>
